{
	"patcher" : 	{
		"fileversion" : 1,
		"appversion" : 		{
			"major" : 6,
			"minor" : 0,
			"revision" : 2
		}
,
		"rect" : [ 6.0, 45.0, 785.0, 564.0 ],
		"bglocked" : 0,
		"openinpresentation" : 0,
		"default_fontsize" : 12.0,
		"default_fontface" : 0,
		"default_fontname" : "Arial",
		"gridonopen" : 0,
		"gridsize" : [ 15.0, 15.0 ],
		"gridsnaponopen" : 0,
		"statusbarvisible" : 2,
		"toolbarvisible" : 1,
		"boxanimatetime" : 200,
		"imprint" : 0,
		"enablehscroll" : 1,
		"enablevscroll" : 1,
		"devicewidth" : 0.0,
		"description" : "",
		"digest" : "",
		"tags" : "",
		"boxes" : [ 			{
				"box" : 				{
					"fontname" : "Arial",
					"fontsize" : 12.0,
					"id" : "obj-7",
					"linecount" : 24,
					"maxclass" : "comment",
					"numinlets" : 1,
					"numoutlets" : 0,
					"patching_rect" : [ 585.0, 163.0, 163.0, 338.0 ],
					"text" : "Here is the patch for November 30, 2011:\n\nAlas, we hit the end of the road. In this ditty, we do a bit of javascript coding to perform a word-wrap on my heartfelt goodbye. Change the font or the font size and the text should wrap accordingly. This uses the text_measure() function to get the width of a string, then back-pedal if we've gone too far.\n\nNot the most elegant wordwrap function ever written, but you get the idea.\n\nI hope you've enjoyed the series, and find the mgraphics system to your liking! "
				}

			}
, 			{
				"box" : 				{
					"bubble" : 1,
					"fontface" : 3,
					"fontname" : "Arial",
					"fontsize" : 12.0,
					"id" : "obj-5",
					"linecount" : 2,
					"maxclass" : "comment",
					"numinlets" : 1,
					"numoutlets" : 0,
					"patching_rect" : [ 275.0, 56.0, 255.0, 38.0 ],
					"text" : "Change the font face and font size to see a cheezy word wrap in action!"
				}

			}
, 			{
				"box" : 				{
					"fontname" : "Arial",
					"fontsize" : 12.0,
					"id" : "obj-15",
					"maxclass" : "newobj",
					"numinlets" : 0,
					"numoutlets" : 1,
					"outlettype" : [ "" ],
					"patcher" : 					{
						"fileversion" : 1,
						"appversion" : 						{
							"major" : 6,
							"minor" : 0,
							"revision" : 2
						}
,
						"rect" : [ 168.0, 71.0, 657.0, 671.0 ],
						"bglocked" : 0,
						"openinpresentation" : 0,
						"default_fontsize" : 12.0,
						"default_fontface" : 0,
						"default_fontname" : "Arial",
						"gridonopen" : 0,
						"gridsize" : [ 15.0, 15.0 ],
						"gridsnaponopen" : 0,
						"statusbarvisible" : 2,
						"toolbarvisible" : 1,
						"boxanimatetime" : 200,
						"imprint" : 0,
						"enablehscroll" : 1,
						"enablevscroll" : 1,
						"devicewidth" : 0.0,
						"description" : "",
						"digest" : "",
						"tags" : "",
						"boxes" : [ 							{
								"box" : 								{
									"fontname" : "Arial",
									"fontsize" : 12.0,
									"id" : "obj-2",
									"maxclass" : "newobj",
									"numinlets" : 1,
									"numoutlets" : 1,
									"outlettype" : [ "" ],
									"patching_rect" : [ 43.0, 73.0, 72.0, 20.0 ],
									"text" : "loadmess 1"
								}

							}
, 							{
								"box" : 								{
									"fontname" : "Arial",
									"fontsize" : 12.0,
									"id" : "obj-25",
									"maxclass" : "message",
									"numinlets" : 2,
									"numoutlets" : 1,
									"outlettype" : [ "" ],
									"patching_rect" : [ 256.0, 309.0, 273.0, 18.0 ],
									"text" : "Have a great holiday and an excellent New Year!!"
								}

							}
, 							{
								"box" : 								{
									"fontname" : "Arial",
									"fontsize" : 12.0,
									"id" : "obj-23",
									"linecount" : 2,
									"maxclass" : "message",
									"numinlets" : 2,
									"numoutlets" : 1,
									"outlettype" : [ "" ],
									"patching_rect" : [ 149.5, 366.0, 495.0, 32.0 ],
									"text" : "If you have any questions you can feel free to ask in the Javascript forum area or email me directly at ddg@cycling74.com. Questions about Max? Drop me a line - it is what I do..."
								}

							}
, 							{
								"box" : 								{
									"fontname" : "Arial",
									"fontsize" : 12.0,
									"id" : "obj-21",
									"maxclass" : "message",
									"numinlets" : 2,
									"numoutlets" : 1,
									"outlettype" : [ "" ],
									"patching_rect" : [ 43.0, 576.0, 92.0, 18.0 ],
									"text" : "setMessage $1"
								}

							}
, 							{
								"box" : 								{
									"fontname" : "Arial",
									"fontsize" : 12.0,
									"id" : "obj-19",
									"maxclass" : "newobj",
									"numinlets" : 1,
									"numoutlets" : 1,
									"outlettype" : [ "" ],
									"patching_rect" : [ 43.0, 545.0, 59.0, 20.0 ],
									"text" : "tosymbol"
								}

							}
, 							{
								"box" : 								{
									"fontname" : "Arial",
									"fontsize" : 12.0,
									"id" : "obj-18",
									"linecount" : 5,
									"maxclass" : "message",
									"numinlets" : 2,
									"numoutlets" : 1,
									"outlettype" : [ "" ],
									"patching_rect" : [ 43.0, 452.0, 205.0, 73.0 ],
									"text" : "Thank you very much for sticking with me throughout this whole adventure. It has been great fun and I hope that you learned something useful through this series."
								}

							}
, 							{
								"box" : 								{
									"comment" : "",
									"id" : "obj-16",
									"maxclass" : "outlet",
									"numinlets" : 1,
									"numoutlets" : 0,
									"patching_rect" : [ 43.0, 604.0, 25.0, 25.0 ]
								}

							}
, 							{
								"box" : 								{
									"id" : "obj-11",
									"maxclass" : "button",
									"numinlets" : 1,
									"numoutlets" : 1,
									"outlettype" : [ "bang" ],
									"patching_rect" : [ 256.0, 263.0, 20.0, 20.0 ]
								}

							}
, 							{
								"box" : 								{
									"id" : "obj-9",
									"maxclass" : "button",
									"numinlets" : 1,
									"numoutlets" : 1,
									"outlettype" : [ "bang" ],
									"patching_rect" : [ 149.5, 263.0, 20.0, 20.0 ]
								}

							}
, 							{
								"box" : 								{
									"id" : "obj-7",
									"maxclass" : "button",
									"numinlets" : 1,
									"numoutlets" : 1,
									"outlettype" : [ "bang" ],
									"patching_rect" : [ 43.0, 263.0, 20.0, 20.0 ]
								}

							}
, 							{
								"box" : 								{
									"fontname" : "Arial",
									"fontsize" : 12.0,
									"id" : "obj-5",
									"maxclass" : "newobj",
									"numinlets" : 4,
									"numoutlets" : 4,
									"outlettype" : [ "bang", "bang", "bang", "" ],
									"patching_rect" : [ 43.0, 224.0, 338.5, 20.0 ],
									"text" : "sel 0 1 2"
								}

							}
, 							{
								"box" : 								{
									"fontname" : "Arial",
									"fontsize" : 12.0,
									"id" : "obj-4",
									"maxclass" : "newobj",
									"numinlets" : 5,
									"numoutlets" : 4,
									"outlettype" : [ "int", "", "", "int" ],
									"patching_rect" : [ 43.0, 188.0, 73.0, 20.0 ],
									"text" : "counter 0 2"
								}

							}
, 							{
								"box" : 								{
									"id" : "obj-3",
									"maxclass" : "button",
									"numinlets" : 1,
									"numoutlets" : 1,
									"outlettype" : [ "bang" ],
									"patching_rect" : [ 43.0, 146.0, 20.0, 20.0 ]
								}

							}
, 							{
								"box" : 								{
									"fontname" : "Arial",
									"fontsize" : 12.0,
									"id" : "obj-1",
									"maxclass" : "newobj",
									"numinlets" : 2,
									"numoutlets" : 1,
									"outlettype" : [ "bang" ],
									"patching_rect" : [ 43.0, 117.0, 71.0, 20.0 ],
									"text" : "metro 5000"
								}

							}
 ],
						"lines" : [ 							{
								"patchline" : 								{
									"destination" : [ "obj-3", 0 ],
									"disabled" : 0,
									"hidden" : 0,
									"source" : [ "obj-1", 0 ]
								}

							}
, 							{
								"patchline" : 								{
									"destination" : [ "obj-25", 0 ],
									"disabled" : 0,
									"hidden" : 0,
									"source" : [ "obj-11", 0 ]
								}

							}
, 							{
								"patchline" : 								{
									"destination" : [ "obj-19", 0 ],
									"disabled" : 0,
									"hidden" : 0,
									"source" : [ "obj-18", 0 ]
								}

							}
, 							{
								"patchline" : 								{
									"destination" : [ "obj-21", 0 ],
									"disabled" : 0,
									"hidden" : 0,
									"source" : [ "obj-19", 0 ]
								}

							}
, 							{
								"patchline" : 								{
									"destination" : [ "obj-1", 0 ],
									"disabled" : 0,
									"hidden" : 0,
									"source" : [ "obj-2", 0 ]
								}

							}
, 							{
								"patchline" : 								{
									"destination" : [ "obj-16", 0 ],
									"disabled" : 0,
									"hidden" : 0,
									"source" : [ "obj-21", 0 ]
								}

							}
, 							{
								"patchline" : 								{
									"destination" : [ "obj-19", 0 ],
									"disabled" : 0,
									"hidden" : 0,
									"source" : [ "obj-23", 0 ]
								}

							}
, 							{
								"patchline" : 								{
									"destination" : [ "obj-19", 0 ],
									"disabled" : 0,
									"hidden" : 0,
									"source" : [ "obj-25", 0 ]
								}

							}
, 							{
								"patchline" : 								{
									"destination" : [ "obj-4", 0 ],
									"disabled" : 0,
									"hidden" : 0,
									"source" : [ "obj-3", 0 ]
								}

							}
, 							{
								"patchline" : 								{
									"destination" : [ "obj-5", 0 ],
									"disabled" : 0,
									"hidden" : 0,
									"source" : [ "obj-4", 0 ]
								}

							}
, 							{
								"patchline" : 								{
									"destination" : [ "obj-11", 0 ],
									"disabled" : 0,
									"hidden" : 0,
									"source" : [ "obj-5", 2 ]
								}

							}
, 							{
								"patchline" : 								{
									"destination" : [ "obj-7", 0 ],
									"disabled" : 0,
									"hidden" : 0,
									"source" : [ "obj-5", 0 ]
								}

							}
, 							{
								"patchline" : 								{
									"destination" : [ "obj-9", 0 ],
									"disabled" : 0,
									"hidden" : 0,
									"source" : [ "obj-5", 1 ]
								}

							}
, 							{
								"patchline" : 								{
									"destination" : [ "obj-18", 0 ],
									"disabled" : 0,
									"hidden" : 0,
									"source" : [ "obj-7", 0 ]
								}

							}
, 							{
								"patchline" : 								{
									"destination" : [ "obj-23", 0 ],
									"disabled" : 0,
									"hidden" : 0,
									"source" : [ "obj-9", 0 ]
								}

							}
 ],
						"dependency_cache" : [  ]
					}
,
					"patching_rect" : [ 287.0, 109.0, 125.0, 20.0 ],
					"saved_object_attributes" : 					{
						"digest" : "",
						"default_fontname" : "Arial",
						"fontname" : "Arial",
						"tags" : "",
						"default_fontsize" : 12.0,
						"description" : "",
						"globalpatchername" : "",
						"fontface" : 0,
						"fontsize" : 12.0,
						"default_fontface" : 0
					}
,
					"text" : "p MySpecialMessage"
				}

			}
, 			{
				"box" : 				{
					"fontface" : 1,
					"fontname" : "Arial",
					"fontsize" : 12.0,
					"id" : "obj-14",
					"maxclass" : "comment",
					"numinlets" : 1,
					"numoutlets" : 0,
					"patching_rect" : [ 193.0, 36.0, 65.0, 20.0 ],
					"text" : "Font Size"
				}

			}
, 			{
				"box" : 				{
					"fontface" : 1,
					"fontname" : "Arial",
					"fontsize" : 12.0,
					"id" : "obj-12",
					"maxclass" : "comment",
					"numinlets" : 1,
					"numoutlets" : 0,
					"patching_rect" : [ 95.0, 36.0, 68.0, 20.0 ],
					"text" : "Font Face"
				}

			}
, 			{
				"box" : 				{
					"fontname" : "Arial",
					"fontsize" : 12.0,
					"id" : "obj-10",
					"maxclass" : "message",
					"numinlets" : 2,
					"numoutlets" : 1,
					"outlettype" : [ "" ],
					"patching_rect" : [ 193.0, 109.0, 67.0, 18.0 ],
					"text" : "setSize $1"
				}

			}
, 			{
				"box" : 				{
					"fontname" : "Arial",
					"fontsize" : 12.0,
					"id" : "obj-8",
					"maxclass" : "flonum",
					"numinlets" : 1,
					"numoutlets" : 2,
					"outlettype" : [ "float", "bang" ],
					"parameter_enable" : 0,
					"patching_rect" : [ 193.0, 65.0, 50.0, 20.0 ]
				}

			}
, 			{
				"box" : 				{
					"fontname" : "Arial",
					"fontsize" : 12.0,
					"id" : "obj-6",
					"maxclass" : "message",
					"numinlets" : 2,
					"numoutlets" : 1,
					"outlettype" : [ "" ],
					"patching_rect" : [ 74.0, 109.0, 67.0, 18.0 ],
					"text" : "setFont $1"
				}

			}
, 			{
				"box" : 				{
					"fontname" : "Arial",
					"fontsize" : 12.0,
					"id" : "obj-4",
					"items" : [ 0, ",", "Apple Braille Outline 8 Dot", ",", "Apple Braille Pinpoint 6 Dot", ",", "Apple Braille Pinpoint 8 Dot", ",", "Apple Braille", ",", "Apple Color Emoji", ",", "Apple Symbols", ",", "AppleGothic Regular", ",", ".Aqua Kana", ",", "Courier", ",", "Courier Oblique", ",", "Geeza Pro", ",", "Geneva", ",", ".Helvetica LT MM", ",", "Helvetica", ",", "Helvetica Oblique", ",", "Helvetica Light", ",", "Helvetica Light Oblique", ",", "Helvetica Neue", ",", "Helvetica Neue Condensed Bold", ",", "Helvetica Neue UltraLight", ",", "Helvetica Neue Light", ",", "Helvetica Neue Condensed Black", ",", "Helvetica Neue Medium", ",", ".Helvetica Neue Desk UI", ",", ".Keyboard", ",", "LastResort", ",", "Lucida Grande", ",", "Marker Felt Thin", ",", "Marker Felt Wide", ",", "Menlo Regular", ",", "Menlo Bold", ",", "Menlo Italic", ",", "Monaco", ",", "Heiti TC Light", ",", "Heiti SC Light", ",", "Heiti TC Medium", ",", "Heiti SC Medium", ",", "Symbol", ",", "Thonburi", ",", ".Times LT MM", ",", "Times Roman", ",", "Times Bold", ",", "Times Italic", ",", "Zapf Dingbats", ",", "Hiragino Mincho ProN W3", ",", "Hiragino Mincho ProN W6", ",", "Hiragino Kaku Gothic ProN W3", ",", "Hiragino Kaku Gothic ProN W6", ",", "Al Bayan Plain", ",", "Aloisen New", ",", "American Typewriter", ",", "American Typewriter Light", ",", "American Typewriter Condensed", ",", "American Typewriter Condensed Light", ",", "Andale Mono", ",", "Apple Chancery", ",", "Apple LiGothic Medium", ",", "Apple LiSung Light", ",", "Apple Casual", ",", "AppleMyungjo Regular", ",", "Arial Black", ",", "Arial Narrow", ",", "Arial Rounded MT Bold", ",", "Arial Unicode MS", ",", "Arial", ",", "Arial Hebrew", ",", "Ayuthaya", ",", "Baghdad", ",", "Bangla MN", ",", "Bangla Sangam MN", ",", "Baskerville", ",", "Baskerville SemiBold", ",", "BiauKai", ",", "Big Caslon Medium", ",", "BlairMdITC TT Medium", ",", "Bordeaux Roman Bold LET Plain:1.0", ",", "Brush Script MT Italic", ",", "Chalkboard", ",", "Chalkduster", ",", "Charcoal CY", ",", "Cochin", ",", "Comic Sans MS", ",", "Copperplate", ",", "Copperplate Light", ",", "Corsiva Hebrew", ",", "Courier New", ",", "Cracked", ",", "Damascus", ",", "DecoType Naskh", ",", "Devanagari Sangam MN", ",", "Devanagari MT", ",", "Didot", ",", "Euphemia UCAS", ",", "Futura Medium", ",", "Futura Condensed Medium", ",", "Futura Condensed ExtraBold", ",", "Geneva CY", ",", "Georgia", ",", "Gill Sans", ",", "Gill Sans Light", ",", "Gujarati Sangam MN", ",", "Gujarati MT", ",", "GungSeo Regular", ",", "Gurmukhi MN", ",", "Gurmukhi MT", ",", "Handwriting - Dakota", ",", "HeadLineA Regular", ",", "Hei Regular", ",", "Helvetica CY Plain", ",", "Helvetica CY Oblique", ",", "Herculanum", ",", "Hiragino Sans GB W3", ",", "Hiragino Sans GB W6", ",", "Hoefler Text Ornaments", ",", "Hoefler Text", ",", "Hoefler Text Black", ",", "Impact", ",", "InaiMathi", ",", "Kai Regular", ",", "Kailasa Regular", ",", "Kannada MN", ",", "Kannada Sangam MN", ",", "Kefa Regular", ",", "Kefa Bold", ",", "Khmer MN", ",", "Khmer Sangam MN", ",", "Kokonor Regular", ",", "Krungthep", ",", "KufiStandardGK", ",", "Lao MN", ",", "Lao Sangam MN", ",", "Malayalam MN", ",", "Malayalam Sangam MN", ",", "Microsoft Sans Serif", ",", "Mshtakan Oblique", ",", "Mshtakan", ",", "Myanmar MN", ",", "Myanmar Sangam MN", ",", "Nadeem", ",", "NanumGothic", ",", "NanumGothic ExtraBold", ",", "NanumMyeongjo", ",", "NanumMyeongjo ExtraBold", ",", "Nanum Brush Script", ",", "Nanum Pen Script", ",", "New Peninim MT", ",", "New Peninim MT Bold Inclined", ",", "New Peninim MT Inclined", ",", "GB18030 Bitmap", ",", "Noteworthy Light", ",", "Noteworthy Bold", ",", "Optima Regular", ",", "Optima Bold", ",", "Optima Italic", ",", "Optima ExtraBlack", ",", "Oriya MN", ",", "Oriya Sangam MN", ",", "Osaka", ",", "Osaka-Mono", ",", "Palatino", ",", "Papyrus", ",", "Papyrus Condensed", ",", "PCMyungjo Regular", ",", "PilGi Regular", ",", "Plantagenet Cherokee", ",", "PortagoITC TT", ",", "PT Sans", ",", "PT Sans Caption", ",", "PT Sans Narrow", ",", "Raanana", ",", "Sathu", ",", "Silom", ",", "sims Regular", ",", "Sinhala MN", ",", "Sinhala Sangam MN", ",", "Skia Regular", ",", "STIXGeneral", ",", "STIXIntegralsD", ",", "STIXIntegralsSm", ",", "STIXIntegralsUpD", ",", "STIXIntegralsUp", ",", "STIXIntegralsUpSm", ",", "STIXNonUnicode", ",", "STIXSizeFiveSym", ",", "STIXSizeFourSym", ",", "STIXSizeOneSym", ",", "STIXSizeThreeSym", ",", "STIXSizeTwoSym", ",", "STIXVariants", ",", "Tahoma", ",", "Tamil MN", ",", "Tamil Sangam MN", ",", "Telugu MN", ",", "Telugu Sangam MN", ",", "Times New Roman", ",", "Trebuchet MS", ",", "Verdana", ",", "Webdings", ",", "Wingdings 2", ",", "Wingdings 3", ",", "Wingdings", ",", "Zapfino", ",", "Hiragino Maru Gothic Pro W4", ",", "Hiragino Maru Gothic ProN W4", ",", "Hiragino Mincho Pro W3", ",", "Hiragino Mincho Pro W6", ",", "Hiragino Kaku Gothic Pro W3", ",", "Hiragino Kaku Gothic Pro W6", ",", "Hiragino Kaku Gothic Std W8", ",", "Hiragino Kaku Gothic StdN W8", ",", "LiSong Pro", ",", "LiHei Pro", ",", "STFangsong", ",", "STSong", ",", "STKaiti", ",", "STXihei", ",", "STHeiti", ",", "automat", ",", "Sonora" ],
					"maxclass" : "umenu",
					"numinlets" : 1,
					"numoutlets" : 3,
					"outlettype" : [ "int", "", "" ],
					"parameter_enable" : 0,
					"patching_rect" : [ 74.0, 65.0, 100.0, 20.0 ]
				}

			}
, 			{
				"box" : 				{
					"filename" : "VerySpecialMessage.js",
					"id" : "obj-3",
					"maxclass" : "jsui",
					"numinlets" : 1,
					"numoutlets" : 2,
					"outlettype" : [ "", "" ],
					"parameter_enable" : 0,
					"patching_rect" : [ 74.0, 163.0, 497.0, 346.0 ],
					"presentation_rect" : [ 0.0, 0.0, 355.0, 355.0 ]
				}

			}
, 			{
				"box" : 				{
					"fontname" : "Arial",
					"fontsize" : 12.0,
					"id" : "obj-2",
					"maxclass" : "message",
					"numinlets" : 2,
					"numoutlets" : 1,
					"outlettype" : [ "" ],
					"patching_rect" : [ 22.0, 131.0, 37.0, 18.0 ],
					"text" : "open"
				}

			}
 ],
		"lines" : [ 			{
				"patchline" : 				{
					"destination" : [ "obj-3", 0 ],
					"disabled" : 0,
					"hidden" : 0,
					"source" : [ "obj-10", 0 ]
				}

			}
, 			{
				"patchline" : 				{
					"destination" : [ "obj-3", 0 ],
					"disabled" : 0,
					"hidden" : 0,
					"source" : [ "obj-15", 0 ]
				}

			}
, 			{
				"patchline" : 				{
					"destination" : [ "obj-3", 0 ],
					"disabled" : 0,
					"hidden" : 0,
					"source" : [ "obj-2", 0 ]
				}

			}
, 			{
				"patchline" : 				{
					"destination" : [ "obj-4", 0 ],
					"disabled" : 0,
					"hidden" : 0,
					"midpoints" : [ 561.5, 528.0, 10.0, 528.0, 10.0, 52.0, 83.5, 52.0 ],
					"source" : [ "obj-3", 1 ]
				}

			}
, 			{
				"patchline" : 				{
					"destination" : [ "obj-6", 0 ],
					"disabled" : 0,
					"hidden" : 0,
					"source" : [ "obj-4", 1 ]
				}

			}
, 			{
				"patchline" : 				{
					"destination" : [ "obj-3", 0 ],
					"disabled" : 0,
					"hidden" : 0,
					"source" : [ "obj-6", 0 ]
				}

			}
, 			{
				"patchline" : 				{
					"destination" : [ "obj-10", 0 ],
					"disabled" : 0,
					"hidden" : 0,
					"source" : [ "obj-8", 0 ]
				}

			}
 ],
		"dependency_cache" : [ 			{
				"name" : "VerySpecialMessage.js",
				"bootpath" : "/Applications/Max6/patches/JUSI MGraphics Patch a Day Tut/1130-VerySpecialMessage",
				"patcherrelativepath" : "",
				"type" : "TEXT",
				"implicit" : 1
			}
 ]
	}

}
