{
	"patcher" : 	{
		"fileversion" : 1,
		"appversion" : 		{
			"major" : 8,
			"minor" : 5,
			"revision" : 6,
			"architecture" : "x64",
			"modernui" : 1
		}
,
		"classnamespace" : "box",
		"rect" : [ 42.0, 85.0, 1369.0, 913.0 ],
		"bglocked" : 0,
		"openinpresentation" : 0,
		"default_fontsize" : 12.0,
		"default_fontface" : 0,
		"default_fontname" : "Ableton Sans",
		"gridonopen" : 1,
		"gridsize" : [ 15.0, 15.0 ],
		"gridsnaponopen" : 1,
		"objectsnaponopen" : 1,
		"statusbarvisible" : 2,
		"toolbarvisible" : 1,
		"lefttoolbarpinned" : 0,
		"toptoolbarpinned" : 0,
		"righttoolbarpinned" : 0,
		"bottomtoolbarpinned" : 0,
		"toolbars_unpinned_last_save" : 0,
		"tallnewobj" : 0,
		"boxanimatetime" : 200,
		"enablehscroll" : 1,
		"enablevscroll" : 1,
		"devicewidth" : 0.0,
		"description" : "",
		"digest" : "",
		"tags" : "",
		"style" : "blacko",
		"subpatcher_template" : "Blacko",
		"assistshowspatchername" : 0,
		"boxes" : [ 			{
				"box" : 				{
					"id" : "obj-85",
					"maxclass" : "newobj",
					"numinlets" : 1,
					"numoutlets" : 1,
					"outlettype" : [ "int" ],
					"patching_rect" : [ 1390.420010805130005, 627.847358465194702, 23.0, 23.0 ],
					"text" : "t 0"
				}

			}
, 			{
				"box" : 				{
					"id" : "obj-84",
					"maxclass" : "newobj",
					"numinlets" : 2,
					"numoutlets" : 2,
					"outlettype" : [ "bang", "" ],
					"patching_rect" : [ 1390.420010805130005, 601.0, 40.0, 23.0 ],
					"text" : "sel 23"
				}

			}
, 			{
				"box" : 				{
					"id" : "obj-83",
					"maxclass" : "newobj",
					"numinlets" : 5,
					"numoutlets" : 4,
					"outlettype" : [ "int", "", "", "int" ],
					"patching_rect" : [ 1390.420010805130005, 573.297434091567993, 68.0, 23.0 ],
					"text" : "counter 23"
				}

			}
, 			{
				"box" : 				{
					"id" : "obj-82",
					"maxclass" : "toggle",
					"numinlets" : 1,
					"numoutlets" : 1,
					"outlettype" : [ "int" ],
					"parameter_enable" : 0,
					"patching_rect" : [ 1166.5438312292099, 435.0, 24.0, 24.0 ]
				}

			}
, 			{
				"box" : 				{
					"id" : "obj-80",
					"maxclass" : "newobj",
					"numinlets" : 2,
					"numoutlets" : 1,
					"outlettype" : [ "bang" ],
					"patching_rect" : [ 1166.5438312292099, 511.0, 79.0, 23.0 ],
					"text" : "metro 10000"
				}

			}
, 			{
				"box" : 				{
					"id" : "obj-76",
					"maxclass" : "message",
					"numinlets" : 2,
					"numoutlets" : 1,
					"outlettype" : [ "" ],
					"patching_rect" : [ 1201.722935199737549, 792.651157677173615, 29.5, 23.0 ],
					"text" : "0"
				}

			}
, 			{
				"box" : 				{
					"id" : "obj-77",
					"maxclass" : "newobj",
					"numinlets" : 5,
					"numoutlets" : 4,
					"outlettype" : [ "int", "", "", "int" ],
					"patching_rect" : [ 1180.722935199737549, 833.622937977313995, 61.0, 23.0 ],
					"text" : "counter 6"
				}

			}
, 			{
				"box" : 				{
					"id" : "obj-78",
					"maxclass" : "newobj",
					"numinlets" : 2,
					"numoutlets" : 2,
					"outlettype" : [ "", "" ],
					"patching_rect" : [ 1180.722935199737549, 864.159515202045441, 95.697075605392456, 23.0 ],
					"text" : "zl.lookup"
				}

			}
, 			{
				"box" : 				{
					"id" : "obj-79",
					"maxclass" : "multislider",
					"numinlets" : 1,
					"numoutlets" : 2,
					"outlettype" : [ "", "" ],
					"parameter_enable" : 0,
					"patching_rect" : [ 1257.420010805130005, 667.210966885089874, 194.0, 142.0 ],
					"setminmax" : [ 0.0, 1.0 ],
					"setstyle" : 1,
					"size" : 7,
					"spacing" : 1
				}

			}
, 			{
				"box" : 				{
					"id" : "obj-75",
					"maxclass" : "newobj",
					"numinlets" : 2,
					"numoutlets" : 1,
					"outlettype" : [ "float" ],
					"patching_rect" : [ 946.807191848754883, 1019.646566867828369, 29.5, 23.0 ],
					"text" : "f"
				}

			}
, 			{
				"box" : 				{
					"id" : "obj-72",
					"maxclass" : "message",
					"numinlets" : 2,
					"numoutlets" : 1,
					"outlettype" : [ "" ],
					"patching_rect" : [ 1200.222935199737549, 573.297434091567993, 29.5, 23.0 ],
					"text" : "0"
				}

			}
, 			{
				"box" : 				{
					"id" : "obj-71",
					"maxclass" : "message",
					"numinlets" : 2,
					"numoutlets" : 1,
					"outlettype" : [ "" ],
					"patching_rect" : [ 789.511370420455933, 746.847358465194702, 29.5, 23.0 ],
					"text" : "0"
				}

			}
, 			{
				"box" : 				{
					"id" : "obj-68",
					"maxclass" : "newobj",
					"numinlets" : 5,
					"numoutlets" : 4,
					"outlettype" : [ "int", "", "", "int" ],
					"patching_rect" : [ 768.511370420455933, 794.259329557418823, 61.0, 23.0 ],
					"text" : "counter 6"
				}

			}
, 			{
				"box" : 				{
					"id" : "obj-69",
					"maxclass" : "newobj",
					"numinlets" : 2,
					"numoutlets" : 2,
					"outlettype" : [ "", "" ],
					"patching_rect" : [ 768.511370420455933, 824.795906782150269, 95.697075605392456, 23.0 ],
					"text" : "zl.lookup"
				}

			}
, 			{
				"box" : 				{
					"id" : "obj-70",
					"maxclass" : "multislider",
					"numinlets" : 1,
					"numoutlets" : 2,
					"outlettype" : [ "", "" ],
					"parameter_enable" : 0,
					"patching_rect" : [ 845.208446025848389, 627.847358465194702, 194.0, 142.0 ],
					"setminmax" : [ 0.0, 1.0 ],
					"setstyle" : 1,
					"size" : 7,
					"spacing" : 1
				}

			}
, 			{
				"box" : 				{
					"id" : "obj-67",
					"maxclass" : "message",
					"numinlets" : 2,
					"numoutlets" : 1,
					"outlettype" : [ "" ],
					"patching_rect" : [ 1502.927765607833862, 792.651157677173615, 29.5, 23.0 ],
					"text" : "0"
				}

			}
, 			{
				"box" : 				{
					"id" : "obj-65",
					"maxclass" : "newobj",
					"numinlets" : 6,
					"numoutlets" : 1,
					"outlettype" : [ "" ],
					"patching_rect" : [ 768.511370420455933, 864.159515202045441, 102.0, 23.0 ],
					"text" : "scale 0. 1. 0. -0.5"
				}

			}
, 			{
				"box" : 				{
					"id" : "obj-64",
					"maxclass" : "newobj",
					"numinlets" : 1,
					"numoutlets" : 2,
					"outlettype" : [ "bang", "bang" ],
					"patching_rect" : [ 1166.5438312292099, 641.332501471042633, 33.0, 23.0 ],
					"text" : "t b b"
				}

			}
, 			{
				"box" : 				{
					"id" : "obj-62",
					"maxclass" : "newobj",
					"numinlets" : 2,
					"numoutlets" : 2,
					"outlettype" : [ "", "" ],
					"patching_rect" : [ 1180.722935199737549, 959.421701729297638, 38.0, 23.0 ],
					"text" : "zl.rev"
				}

			}
, 			{
				"box" : 				{
					"id" : "obj-61",
					"maxclass" : "newobj",
					"numinlets" : 2,
					"numoutlets" : 1,
					"outlettype" : [ "" ],
					"patching_rect" : [ 1180.722935199737549, 931.108447670936584, 146.567162871360779, 23.0 ],
					"text" : "pack f f"
				}

			}
, 			{
				"box" : 				{
					"id" : "obj-58",
					"maxclass" : "newobj",
					"numinlets" : 1,
					"numoutlets" : 2,
					"outlettype" : [ "bang", "bang" ],
					"patching_rect" : [ 1180.722935199737549, 703.889957070350647, 33.0, 23.0 ],
					"text" : "t b b"
				}

			}
, 			{
				"box" : 				{
					"id" : "obj-57",
					"maxclass" : "message",
					"numinlets" : 2,
					"numoutlets" : 1,
					"outlettype" : [ "" ],
					"patching_rect" : [ 1180.722935199737549, 986.498400092124939, 95.0, 23.0 ],
					"text" : "setnode 1 $1 $2"
				}

			}
, 			{
				"box" : 				{
					"id" : "obj-49",
					"maxclass" : "newobj",
					"numinlets" : 5,
					"numoutlets" : 4,
					"outlettype" : [ "int", "", "", "int" ],
					"patching_rect" : [ 1481.927765607833862, 833.622937977313995, 61.0, 23.0 ],
					"text" : "counter 7"
				}

			}
, 			{
				"box" : 				{
					"id" : "obj-48",
					"maxclass" : "button",
					"numinlets" : 1,
					"numoutlets" : 1,
					"outlettype" : [ "bang" ],
					"parameter_enable" : 0,
					"patching_rect" : [ 1166.5438312292099, 573.297434091567993, 24.0, 24.0 ]
				}

			}
, 			{
				"box" : 				{
					"id" : "obj-46",
					"maxclass" : "newobj",
					"numinlets" : 2,
					"numoutlets" : 2,
					"outlettype" : [ "", "" ],
					"patching_rect" : [ 1481.927765607833862, 864.159515202045441, 95.697075605392456, 23.0 ],
					"text" : "zl.lookup"
				}

			}
, 			{
				"box" : 				{
					"id" : "obj-39",
					"maxclass" : "multislider",
					"numinlets" : 1,
					"numoutlets" : 2,
					"outlettype" : [ "", "" ],
					"parameter_enable" : 0,
					"patching_rect" : [ 1558.624841213226318, 667.210966885089874, 194.0, 142.0 ],
					"setminmax" : [ 0.0, 1.0 ],
					"setstyle" : 1,
					"size" : 8,
					"spacing" : 1
				}

			}
, 			{
				"box" : 				{
					"id" : "obj-34",
					"maxclass" : "newobj",
					"numinlets" : 1,
					"numoutlets" : 1,
					"outlettype" : [ "" ],
					"patcher" : 					{
						"fileversion" : 1,
						"appversion" : 						{
							"major" : 8,
							"minor" : 5,
							"revision" : 6,
							"architecture" : "x64",
							"modernui" : 1
						}
,
						"classnamespace" : "box",
						"rect" : [ -1166.0, 171.0, 971.0, 913.0 ],
						"bglocked" : 0,
						"openinpresentation" : 0,
						"default_fontsize" : 12.0,
						"default_fontface" : 0,
						"default_fontname" : "Ableton Sans",
						"gridonopen" : 1,
						"gridsize" : [ 15.0, 15.0 ],
						"gridsnaponopen" : 1,
						"objectsnaponopen" : 1,
						"statusbarvisible" : 2,
						"toolbarvisible" : 1,
						"lefttoolbarpinned" : 0,
						"toptoolbarpinned" : 0,
						"righttoolbarpinned" : 0,
						"bottomtoolbarpinned" : 0,
						"toolbars_unpinned_last_save" : 0,
						"tallnewobj" : 0,
						"boxanimatetime" : 200,
						"enablehscroll" : 1,
						"enablevscroll" : 1,
						"devicewidth" : 0.0,
						"description" : "",
						"digest" : "",
						"tags" : "",
						"style" : "blacko",
						"subpatcher_template" : "Blacko",
						"assistshowspatchername" : 0,
						"boxes" : [ 							{
								"box" : 								{
									"id" : "obj-11",
									"maxclass" : "newobj",
									"numinlets" : 3,
									"numoutlets" : 1,
									"outlettype" : [ "" ],
									"patching_rect" : [ 373.0, 289.0, 83.0, 23.0 ],
									"text" : "clip 0.01 0.99"
								}

							}
, 							{
								"box" : 								{
									"comment" : "",
									"id" : "obj-8",
									"index" : 1,
									"maxclass" : "outlet",
									"numinlets" : 1,
									"numoutlets" : 0,
									"patching_rect" : [ 620.0, 408.0, 30.0, 30.0 ]
								}

							}
, 							{
								"box" : 								{
									"id" : "obj-7",
									"maxclass" : "message",
									"numinlets" : 2,
									"numoutlets" : 1,
									"outlettype" : [ "" ],
									"patching_rect" : [ 373.0, 314.0, 210.0, 23.0 ],
									"text" : "key@access-in-1-position $1 $2 0.01"
								}

							}
, 							{
								"box" : 								{
									"id" : "obj-4",
									"maxclass" : "newobj",
									"numinlets" : 2,
									"numoutlets" : 2,
									"outlettype" : [ "", "" ],
									"patching_rect" : [ 373.0, 201.0, 48.0, 23.0 ],
									"text" : "route 1"
								}

							}
, 							{
								"box" : 								{
									"id" : "obj-3",
									"maxclass" : "newobj",
									"numinlets" : 2,
									"numoutlets" : 2,
									"outlettype" : [ "", "" ],
									"patching_rect" : [ 373.0, 161.0, 67.0, 23.0 ],
									"text" : "route node"
								}

							}
, 							{
								"box" : 								{
									"comment" : "",
									"id" : "obj-1",
									"index" : 1,
									"maxclass" : "inlet",
									"numinlets" : 0,
									"numoutlets" : 1,
									"outlettype" : [ "" ],
									"patching_rect" : [ 373.0, 110.0, 30.0, 30.0 ]
								}

							}
 ],
						"lines" : [ 							{
								"patchline" : 								{
									"destination" : [ "obj-3", 0 ],
									"source" : [ "obj-1", 0 ]
								}

							}
, 							{
								"patchline" : 								{
									"destination" : [ "obj-7", 0 ],
									"source" : [ "obj-11", 0 ]
								}

							}
, 							{
								"patchline" : 								{
									"destination" : [ "obj-4", 0 ],
									"source" : [ "obj-3", 0 ]
								}

							}
, 							{
								"patchline" : 								{
									"destination" : [ "obj-11", 0 ],
									"source" : [ "obj-4", 0 ]
								}

							}
, 							{
								"patchline" : 								{
									"destination" : [ "obj-8", 0 ],
									"midpoints" : [ 382.5, 370.0, 629.5, 370.0 ],
									"source" : [ "obj-7", 0 ]
								}

							}
 ],
						"styles" : [ 							{
								"name" : "blacko",
								"default" : 								{
									"accentcolor" : [ 0.184313725490196, 0.184313725490196, 0.184313725490196, 1.0 ],
									"bgcolor" : [ 0.184313725490196, 0.184313725490196, 0.184313725490196, 1.0 ],
									"editing_bgcolor" : [ 0.094117647058824, 0.058823529411765, 0.050980392156863, 1.0 ],
									"elementcolor" : [ 0.34902, 0.34902, 0.34902, 1.0 ],
									"fontname" : [ "Ableton Sans" ],
									"locked_bgcolor" : [ 0.07843137254902, 0.047058823529412, 0.043137254901961, 1.0 ],
									"stripecolor" : [ 0.243137, 0.243137, 0.243137, 1.0 ],
									"textcolor" : [ 1.0, 1.0, 1.0, 1.0 ],
									"textjustification" : [ 0 ]
								}
,
								"parentstyle" : "",
								"multi" : 0
							}
 ]
					}
,
					"patching_rect" : [ 1223.722935199737549, 1133.498400092124939, 72.0, 23.0 ],
					"presentation_linecount" : 2,
					"saved_object_attributes" : 					{
						"description" : "",
						"digest" : "",
						"fontname" : "Ableton Sans",
						"globalpatchername" : "",
						"style" : "blacko",
						"tags" : ""
					}
,
					"text" : "p strike-pos"
				}

			}
, 			{
				"box" : 				{
					"filternodeschanges" : 1,
					"id" : "obj-35",
					"maxclass" : "nodes",
					"nodesnames" : [ "1" ],
					"nsize" : [ 0.2 ],
					"numinlets" : 1,
					"numoutlets" : 3,
					"outlettype" : [ "", "", "" ],
					"parameter_enable" : 0,
					"patching_rect" : [ 1180.722935199737549, 1011.498400092124939, 105.0, 118.814408779144287 ],
					"xplace" : [ 0.07895047102176 ],
					"yplace" : [ 0.262049062571055 ]
				}

			}
, 			{
				"box" : 				{
					"id" : "obj-31",
					"maxclass" : "button",
					"numinlets" : 1,
					"numoutlets" : 1,
					"outlettype" : [ "bang" ],
					"parameter_enable" : 0,
					"patching_rect" : [ 2695.744661569595337, 1902.127645969390869, 24.0, 24.0 ]
				}

			}
, 			{
				"box" : 				{
					"id" : "obj-29",
					"maxclass" : "newobj",
					"numinlets" : 1,
					"numoutlets" : 2,
					"outlettype" : [ "bang", "" ],
					"patching_rect" : [ 1974.416627168655396, 1038.250000715255737, 31.0, 23.0 ],
					"text" : "t b s"
				}

			}
, 			{
				"box" : 				{
					"id" : "obj-28",
					"maxclass" : "newobj",
					"numinlets" : 1,
					"numoutlets" : 1,
					"outlettype" : [ "" ],
					"patching_rect" : [ 1822.916627168655396, 1102.250000715255737, 123.0, 23.0 ],
					"text" : "mlys-param key pitch"
				}

			}
, 			{
				"box" : 				{
					"format" : 6,
					"id" : "obj-27",
					"maxclass" : "flonum",
					"numinlets" : 1,
					"numoutlets" : 2,
					"outlettype" : [ "", "bang" ],
					"parameter_enable" : 0,
					"patching_rect" : [ 1822.916627168655396, 996.250000715255737, 50.0, 23.0 ]
				}

			}
, 			{
				"box" : 				{
					"id" : "obj-22",
					"maxclass" : "newobj",
					"numinlets" : 0,
					"numoutlets" : 1,
					"outlettype" : [ "bang" ],
					"patching_rect" : [ 1166.5438312292099, 386.72756290435791, 85.0, 23.0 ],
					"text" : "duration-seq2"
				}

			}
, 			{
				"box" : 				{
					"id" : "obj-19",
					"maxclass" : "newobj",
					"numinlets" : 1,
					"numoutlets" : 1,
					"outlettype" : [ "" ],
					"patcher" : 					{
						"fileversion" : 1,
						"appversion" : 						{
							"major" : 8,
							"minor" : 5,
							"revision" : 6,
							"architecture" : "x64",
							"modernui" : 1
						}
,
						"classnamespace" : "box",
						"rect" : [ -1166.0, 171.0, 971.0, 913.0 ],
						"bglocked" : 0,
						"openinpresentation" : 0,
						"default_fontsize" : 12.0,
						"default_fontface" : 0,
						"default_fontname" : "Ableton Sans",
						"gridonopen" : 1,
						"gridsize" : [ 15.0, 15.0 ],
						"gridsnaponopen" : 1,
						"objectsnaponopen" : 1,
						"statusbarvisible" : 2,
						"toolbarvisible" : 1,
						"lefttoolbarpinned" : 0,
						"toptoolbarpinned" : 0,
						"righttoolbarpinned" : 0,
						"bottomtoolbarpinned" : 0,
						"toolbars_unpinned_last_save" : 0,
						"tallnewobj" : 0,
						"boxanimatetime" : 200,
						"enablehscroll" : 1,
						"enablevscroll" : 1,
						"devicewidth" : 0.0,
						"description" : "",
						"digest" : "",
						"tags" : "",
						"style" : "blacko",
						"subpatcher_template" : "Blacko",
						"assistshowspatchername" : 0,
						"boxes" : [ 							{
								"box" : 								{
									"id" : "obj-12",
									"maxclass" : "newobj",
									"numinlets" : 3,
									"numoutlets" : 1,
									"outlettype" : [ "" ],
									"patching_rect" : [ 620.0, 289.0, 83.0, 23.0 ],
									"text" : "clip 0.01 0.99"
								}

							}
, 							{
								"box" : 								{
									"id" : "obj-11",
									"maxclass" : "newobj",
									"numinlets" : 3,
									"numoutlets" : 1,
									"outlettype" : [ "" ],
									"patching_rect" : [ 373.0, 289.0, 83.0, 23.0 ],
									"text" : "clip 0.01 0.99"
								}

							}
, 							{
								"box" : 								{
									"id" : "obj-9",
									"maxclass" : "message",
									"numinlets" : 2,
									"numoutlets" : 1,
									"outlettype" : [ "" ],
									"patching_rect" : [ 620.0, 314.0, 218.0, 23.0 ],
									"text" : "key@access-out-2-position $1 $2 0.01"
								}

							}
, 							{
								"box" : 								{
									"comment" : "",
									"id" : "obj-8",
									"index" : 1,
									"maxclass" : "outlet",
									"numinlets" : 1,
									"numoutlets" : 0,
									"patching_rect" : [ 620.0, 408.0, 30.0, 30.0 ]
								}

							}
, 							{
								"box" : 								{
									"id" : "obj-7",
									"maxclass" : "message",
									"numinlets" : 2,
									"numoutlets" : 1,
									"outlettype" : [ "" ],
									"patching_rect" : [ 373.0, 314.0, 218.0, 23.0 ],
									"text" : "key@access-out-1-position $1 $2 0.01"
								}

							}
, 							{
								"box" : 								{
									"id" : "obj-4",
									"maxclass" : "newobj",
									"numinlets" : 3,
									"numoutlets" : 3,
									"outlettype" : [ "", "", "" ],
									"patching_rect" : [ 373.0, 201.0, 57.0, 23.0 ],
									"text" : "route 1 2"
								}

							}
, 							{
								"box" : 								{
									"id" : "obj-3",
									"maxclass" : "newobj",
									"numinlets" : 2,
									"numoutlets" : 2,
									"outlettype" : [ "", "" ],
									"patching_rect" : [ 373.0, 161.0, 67.0, 23.0 ],
									"text" : "route node"
								}

							}
, 							{
								"box" : 								{
									"comment" : "",
									"id" : "obj-1",
									"index" : 1,
									"maxclass" : "inlet",
									"numinlets" : 0,
									"numoutlets" : 1,
									"outlettype" : [ "" ],
									"patching_rect" : [ 373.0, 110.0, 30.0, 30.0 ]
								}

							}
 ],
						"lines" : [ 							{
								"patchline" : 								{
									"destination" : [ "obj-3", 0 ],
									"source" : [ "obj-1", 0 ]
								}

							}
, 							{
								"patchline" : 								{
									"destination" : [ "obj-7", 0 ],
									"source" : [ "obj-11", 0 ]
								}

							}
, 							{
								"patchline" : 								{
									"destination" : [ "obj-9", 0 ],
									"source" : [ "obj-12", 0 ]
								}

							}
, 							{
								"patchline" : 								{
									"destination" : [ "obj-4", 0 ],
									"source" : [ "obj-3", 0 ]
								}

							}
, 							{
								"patchline" : 								{
									"destination" : [ "obj-11", 0 ],
									"source" : [ "obj-4", 0 ]
								}

							}
, 							{
								"patchline" : 								{
									"destination" : [ "obj-12", 0 ],
									"midpoints" : [ 401.5, 258.0, 629.5, 258.0 ],
									"source" : [ "obj-4", 1 ]
								}

							}
, 							{
								"patchline" : 								{
									"destination" : [ "obj-8", 0 ],
									"midpoints" : [ 382.5, 370.0, 629.5, 370.0 ],
									"source" : [ "obj-7", 0 ]
								}

							}
, 							{
								"patchline" : 								{
									"destination" : [ "obj-8", 0 ],
									"midpoints" : [ 629.5, 375.0, 629.5, 375.0 ],
									"source" : [ "obj-9", 0 ]
								}

							}
 ],
						"styles" : [ 							{
								"name" : "blacko",
								"default" : 								{
									"accentcolor" : [ 0.184313725490196, 0.184313725490196, 0.184313725490196, 1.0 ],
									"bgcolor" : [ 0.184313725490196, 0.184313725490196, 0.184313725490196, 1.0 ],
									"editing_bgcolor" : [ 0.094117647058824, 0.058823529411765, 0.050980392156863, 1.0 ],
									"elementcolor" : [ 0.34902, 0.34902, 0.34902, 1.0 ],
									"fontname" : [ "Ableton Sans" ],
									"locked_bgcolor" : [ 0.07843137254902, 0.047058823529412, 0.043137254901961, 1.0 ],
									"stripecolor" : [ 0.243137, 0.243137, 0.243137, 1.0 ],
									"textcolor" : [ 1.0, 1.0, 1.0, 1.0 ],
									"textjustification" : [ 0 ]
								}
,
								"parentstyle" : "",
								"multi" : 0
							}
 ]
					}
,
					"patching_rect" : [ 1731.916627168655396, 1102.250000715255737, 66.0, 23.0 ],
					"saved_object_attributes" : 					{
						"description" : "",
						"digest" : "",
						"fontname" : "Ableton Sans",
						"globalpatchername" : "",
						"style" : "blacko",
						"tags" : ""
					}
,
					"text" : "p mics-pos"
				}

			}
, 			{
				"box" : 				{
					"filternodeschanges" : 1,
					"id" : "obj-18",
					"maxclass" : "nodes",
					"nodenumber" : 2,
					"nodesnames" : [ "1", "2" ],
					"nsize" : [ 0.2, 0.2 ],
					"numinlets" : 1,
					"numoutlets" : 3,
					"outlettype" : [ "", "", "" ],
					"parameter_enable" : 0,
					"patching_rect" : [ 1688.916627168655396, 980.250000715255737, 105.0, 118.814408779144287 ],
					"xplace" : [ 0.191270217441377, 0.724603550774711 ],
					"yplace" : [ 0.780629220292218, 0.267223475763467 ]
				}

			}
, 			{
				"box" : 				{
					"id" : "obj-17",
					"maxclass" : "newobj",
					"numinlets" : 1,
					"numoutlets" : 1,
					"outlettype" : [ "" ],
					"patching_rect" : [ 1986.416627168655396, 1102.250000715255737, 118.0, 23.0 ],
					"text" : "bs.mlys-material key"
				}

			}
, 			{
				"box" : 				{
					"id" : "obj-14",
					"maxclass" : "message",
					"numinlets" : 2,
					"numoutlets" : 1,
					"outlettype" : [ "" ],
					"patching_rect" : [ 946.807191848754883, 1045.81094765663147, 52.0, 23.0 ],
					"text" : "$1 5 0 5"
				}

			}
, 			{
				"box" : 				{
					"id" : "obj-12",
					"maxclass" : "newobj",
					"numinlets" : 2,
					"numoutlets" : 2,
					"outlettype" : [ "signal", "bang" ],
					"patching_rect" : [ 946.807191848754883, 1072.81094765663147, 35.0, 23.0 ],
					"text" : "line~"
				}

			}
, 			{
				"box" : 				{
					"id" : "obj-10",
					"lastchannelcount" : 0,
					"maxclass" : "live.gain~",
					"numinlets" : 2,
					"numoutlets" : 5,
					"orientation" : 1,
					"outlettype" : [ "signal", "signal", "", "float", "list" ],
					"parameter_enable" : 1,
					"patching_rect" : [ 599.0, 1220.0, 136.0, 47.0 ],
					"saved_attribute_attributes" : 					{
						"valueof" : 						{
							"parameter_longname" : "live.gain~",
							"parameter_mmax" : 6.0,
							"parameter_mmin" : -70.0,
							"parameter_shortname" : "live.gain~",
							"parameter_type" : 0,
							"parameter_unitstyle" : 4
						}

					}
,
					"varname" : "live.gain~"
				}

			}
, 			{
				"box" : 				{
					"id" : "obj-8",
					"maxclass" : "newobj",
					"numinlets" : 2,
					"numoutlets" : 0,
					"patching_rect" : [ 599.0, 1269.0, 48.25, 23.0 ],
					"text" : "dac~"
				}

			}
, 			{
				"box" : 				{
					"id" : "obj-36",
					"maxclass" : "newobj",
					"numinlets" : 1,
					"numoutlets" : 1,
					"outlettype" : [ "" ],
					"patching_rect" : [ 2276.396844208240509, 1102.43559193611145, 150.0, 23.0 ],
					"text" : "mlys-param key const-loss"
				}

			}
, 			{
				"box" : 				{
					"id" : "obj-6",
					"maxclass" : "newobj",
					"numinlets" : 1,
					"numoutlets" : 1,
					"outlettype" : [ "" ],
					"patching_rect" : [ 2131.416627168655396, 1102.250000715255737, 143.0, 23.0 ],
					"text" : "mlys-param key freq-loss"
				}

			}
, 			{
				"box" : 				{
					"id" : "obj-56",
					"items" : [ "Aluminium", ",", "Bismuth", ",", "Brass", ",", "Bronze", ",", "Cesium", ",", "Copper", ",", "Gold", ",", "Iridium", ",", "Iron", ",", "Lead", ",", "Lithium", ",", "Magnesium", ",", "Mercury", ",", "Nickel", ",", "Osmium", ",", "Platinum", ",", "Silver", ",", "Steel", ",", "Tin", ",", "Titanium", ",", "Tungsten", ",", "Zinc", ",", "Diamond", ",", "Granite", ",", "Graphite", ",", "Limestone", ",", "Marble", ",", "Quartz", ",", "Sandstone", ",", "Sapphire", ",", "Shale", ",", "Silicon", ",", "Uranium", ",", "Carbon_Fiber", ",", "Catgut", ",", "Flax_Fiber", ",", "Hemp_Fiber", ",", "Horse_Hair", ",", "Nylon", ",", "Silkworm_Silk", ",", "Spider_Silk", ",", "Bone", ",", "Carrot", ",", "Concrete", ",", "Cork", ",", "Glass(Borosilicate)", ",", "Glass(Soda-Lime)", ",", "Ice", ",", "Marshmallow", ",", "Olive_oil", ",", "Rubber(hard)", ",", "Rubber(soft)", ",", "Seawater", ",", "Tooth_enamel", ",", "Water" ],
					"maxclass" : "umenu",
					"numinlets" : 1,
					"numoutlets" : 3,
					"outlettype" : [ "int", "", "" ],
					"parameter_enable" : 0,
					"patching_rect" : [ 1924.916627168655396, 996.250000715255737, 118.0, 23.0 ],
					"presentation" : 1,
					"presentation_rect" : [ 90.197617471218109, 214.567607223987579, 83.431952238082886, 23.0 ]
				}

			}
, 			{
				"box" : 				{
					"fontsize" : 10.5,
					"id" : "obj-38",
					"maxclass" : "live.dial",
					"numinlets" : 1,
					"numoutlets" : 2,
					"outlettype" : [ "", "float" ],
					"parameter_enable" : 1,
					"patching_rect" : [ 2276.396844208240509, 968.250000715255737, 56.0, 51.0 ],
					"presentation" : 1,
					"presentation_rect" : [ 78.286727011203766, 111.567607223987579, 52.0, 51.0 ],
					"saved_attribute_attributes" : 					{
						"textcolor" : 						{
							"expression" : ""
						}
,
						"valueof" : 						{
							"parameter_exponent" : 2.0,
							"parameter_initial" : [ 1 ],
							"parameter_initial_enable" : 1,
							"parameter_linknames" : 1,
							"parameter_longname" : "Constloss",
							"parameter_mmax" : 10.0,
							"parameter_modmode" : 2,
							"parameter_shortname" : "const. loss",
							"parameter_type" : 0,
							"parameter_unitstyle" : 1
						}

					}
,
					"textcolor" : [ 1.0, 1.0, 1.0, 1.0 ],
					"varname" : "Constloss"
				}

			}
, 			{
				"box" : 				{
					"fontsize" : 10.5,
					"id" : "obj-32",
					"maxclass" : "live.dial",
					"numinlets" : 1,
					"numoutlets" : 2,
					"outlettype" : [ "", "float" ],
					"parameter_enable" : 1,
					"patching_rect" : [ 2131.416627168655396, 968.250000715255737, 47.0, 51.0 ],
					"presentation" : 1,
					"presentation_rect" : [ 133.51060563325882, 111.567607223987579, 52.0, 51.0 ],
					"saved_attribute_attributes" : 					{
						"textcolor" : 						{
							"expression" : ""
						}
,
						"valueof" : 						{
							"parameter_exponent" : 2.0,
							"parameter_initial" : [ 5 ],
							"parameter_initial_enable" : 1,
							"parameter_linknames" : 1,
							"parameter_longname" : "Freqloss",
							"parameter_mmax" : 10.0,
							"parameter_modmode" : 2,
							"parameter_shortname" : "freq. loss",
							"parameter_type" : 0,
							"parameter_unitstyle" : 1
						}

					}
,
					"textcolor" : [ 1.0, 1.0, 1.0, 1.0 ],
					"varname" : "Freqloss"
				}

			}
, 			{
				"box" : 				{
					"id" : "obj-4",
					"maxclass" : "button",
					"numinlets" : 1,
					"numoutlets" : 1,
					"outlettype" : [ "bang" ],
					"parameter_enable" : 0,
					"patching_rect" : [ 599.0, 73.0, 24.0, 24.0 ]
				}

			}
, 			{
				"box" : 				{
					"color" : [ 1.0, 0.611765, 0.611765, 1.0 ],
					"fontname" : "Arial",
					"fontsize" : 12.0,
					"id" : "obj-33",
					"maxclass" : "newobj",
					"numinlets" : 1,
					"numoutlets" : 1,
					"outlettype" : [ "" ],
					"patching_rect" : [ 599.0, 107.0, 225.0, 22.0 ],
					"saved_object_attributes" : 					{
						"channel" : 1,
						"gain" : 1.0,
						"name" : "in1"
					}
,
					"text" : "mlys.point-input @channel 1 @name in1"
				}

			}
, 			{
				"box" : 				{
					"color" : [ 1.0, 0.611765, 0.611765, 1.0 ],
					"fontname" : "Arial",
					"fontsize" : 12.0,
					"id" : "obj-37",
					"maxclass" : "newobj",
					"numinlets" : 1,
					"numoutlets" : 1,
					"outlettype" : [ "" ],
					"patching_rect" : [ 599.0, 131.0, 157.0, 22.0 ],
					"saved_object_attributes" : 					{
						"name" : "signal1",
						"target-attribute" : "none"
					}
,
					"text" : "mlys.signal @name signal1"
				}

			}
, 			{
				"box" : 				{
					"color" : [ 0.156863, 0.8, 0.54902, 1.0 ],
					"fontname" : "Arial",
					"fontsize" : 12.0,
					"id" : "obj-40",
					"maxclass" : "newobj",
					"numinlets" : 1,
					"numoutlets" : 1,
					"outlettype" : [ "" ],
					"patching_rect" : [ 599.0, 172.0, 203.0, 22.0 ],
					"saved_object_attributes" : 					{
						"name" : "MalletPosition",
						"position" : 0.0,
						"weight" : 1.0
					}
,
					"text" : "mlys.position @name MalletPosition"
				}

			}
, 			{
				"box" : 				{
					"color" : [ 0.156863, 0.8, 0.54902, 1.0 ],
					"fontname" : "Arial",
					"fontsize" : 12.0,
					"id" : "obj-41",
					"linecount" : 2,
					"maxclass" : "newobj",
					"numinlets" : 1,
					"numoutlets" : 1,
					"outlettype" : [ "" ],
					"patching_rect" : [ 599.0, 238.5, 252.0, 36.0 ],
					"saved_object_attributes" : 					{
						"F0" : [ 1.0, 9.0 ],
						"alpha" : 6.0,
						"epsilon" : 0.5,
						"initial-position-in" : 0.0,
						"initial-position-out" : -0.100000001490116,
						"name" : "MalletFelt",
						"tau" : 0.000009999999747,
						"thickness" : 0.001000000047497,
						"weight" : 1.0
					}
,
					"text" : "mlys.felt @initial-position-in 0 @initial-position-out -0.1 @name MalletFelt"
				}

			}
, 			{
				"box" : 				{
					"color" : [ 0.6, 0.6, 1.0, 1.0 ],
					"fontname" : "Arial",
					"fontsize" : 12.0,
					"id" : "obj-42",
					"maxclass" : "newobj",
					"numinlets" : 1,
					"numoutlets" : 1,
					"outlettype" : [ "" ],
					"patching_rect" : [ 599.0, 214.5, 181.0, 22.0 ],
					"saved_object_attributes" : 					{
						"access-in-initial-position" : [ 1.0 ],
						"access-out-initial-position" : [ 1.0 ],
						"ampl" : [ 1.0 ],
						"freq" : [ 110.0 ],
						"loss" : [ 1.0 ],
						"modes" : 1,
						"name" : "Mallet"
					}
,
					"text" : "mlys.single-point @name Mallet"
				}

			}
, 			{
				"box" : 				{
					"color" : [ 1.0, 0.898039, 0.0, 1.0 ],
					"fontname" : "Arial",
					"fontsize" : 12.0,
					"id" : "obj-9",
					"linecount" : 3,
					"maxclass" : "newobj",
					"numinlets" : 1,
					"numoutlets" : 2,
					"outlettype" : [ "", "" ],
					"patching_rect" : [ 599.0, 295.814408779144287, 261.0, 50.0 ],
					"saved_object_attributes" : 					{
						"access-in-initial-position-x" : [ 0.5 ],
						"access-in-initial-position-y" : [ 0.75 ],
						"access-out-initial-position-x" : [ 0.100000001490116, 0.200000002980232 ],
						"access-out-initial-position-y" : [ 0.100000001490116, 0.200000002980232 ],
						"const-loss" : 6.21999979019165,
						"density" : 5000.0,
						"freq-loss" : 0.00000799999998,
						"length0" : 0.5,
						"length1" : 0.5,
						"modes" : 160,
						"name" : "Key",
						"pitch" : 103.826171875,
						"pitch-parameter" : "size",
						"poisson" : 0.300000011920929,
						"thickness" : 0.000500000023749,
						"young" : [ 1.0, 10.0 ]
					}
,
					"text" : "mlys.rect-plate 1 2 @modes 160 @name Key @const-loss 6.22 @freq-loss 8.22e-6 @density 720 @young 1. 10",
					"varname" : "MonoString[1]"
				}

			}
, 			{
				"box" : 				{
					"color" : [ 0.278431, 0.921569, 0.639216, 1.0 ],
					"fontname" : "Arial",
					"fontsize" : 12.0,
					"id" : "obj-15",
					"linecount" : 2,
					"maxclass" : "newobj",
					"numinlets" : 1,
					"numoutlets" : 1,
					"outlettype" : [ "" ],
					"patching_rect" : [ 841.0, 359.0, 173.0, 36.0 ],
					"saved_object_attributes" : 					{
						"channel" : 2,
						"gain" : 1.0,
						"name" : "out2"
					}
,
					"text" : "mlys.point-output @name out2 @channel 2"
				}

			}
, 			{
				"box" : 				{
					"color" : [ 0.2, 0.8, 0.6, 1.0 ],
					"fontname" : "Arial",
					"fontsize" : 18.0,
					"id" : "obj-7",
					"maxclass" : "newobj",
					"numinlets" : 1,
					"numoutlets" : 3,
					"outlettype" : [ "signal", "signal", "" ],
					"patching_rect" : [ 599.0, 1185.0, 253.0, 29.0 ],
					"saved_object_attributes" : 					{
						"precision" : ""
					}
,
					"text" : "modalys~ 1 2"
				}

			}
, 			{
				"box" : 				{
					"fontname" : "Arial",
					"fontsize" : 12.0,
					"id" : "obj-5",
					"maxclass" : "newobj",
					"numinlets" : 1,
					"numoutlets" : 1,
					"outlettype" : [ "" ],
					"patching_rect" : [ 599.0, 397.0, 69.0, 22.0 ],
					"saved_object_attributes" : 					{
						"angle-mode" : "degree",
						"multi" : 0,
						"precision" : "double"
					}
,
					"text" : "mlys.script"
				}

			}
, 			{
				"box" : 				{
					"color" : [ 0.278431, 0.921569, 0.639216, 1.0 ],
					"fontname" : "Arial",
					"fontsize" : 12.0,
					"id" : "obj-1",
					"linecount" : 2,
					"maxclass" : "newobj",
					"numinlets" : 1,
					"numoutlets" : 1,
					"outlettype" : [ "" ],
					"patching_rect" : [ 599.0, 359.0, 172.0, 36.0 ],
					"saved_object_attributes" : 					{
						"channel" : 1,
						"gain" : 1.0,
						"name" : "out1"
					}
,
					"text" : "mlys.point-output @name out1 @channel 1"
				}

			}
 ],
		"lines" : [ 			{
				"patchline" : 				{
					"destination" : [ "obj-5", 0 ],
					"midpoints" : [ 608.5, 400.0, 608.5, 400.0 ],
					"source" : [ "obj-1", 0 ]
				}

			}
, 			{
				"patchline" : 				{
					"destination" : [ "obj-8", 1 ],
					"source" : [ "obj-10", 1 ]
				}

			}
, 			{
				"patchline" : 				{
					"destination" : [ "obj-8", 0 ],
					"source" : [ "obj-10", 0 ]
				}

			}
, 			{
				"patchline" : 				{
					"destination" : [ "obj-7", 0 ],
					"midpoints" : [ 956.307191848754883, 1170.0, 608.5, 1170.0 ],
					"source" : [ "obj-12", 0 ]
				}

			}
, 			{
				"patchline" : 				{
					"destination" : [ "obj-12", 0 ],
					"source" : [ "obj-14", 0 ]
				}

			}
, 			{
				"patchline" : 				{
					"destination" : [ "obj-7", 0 ],
					"midpoints" : [ 1995.916627168655396, 1170.0, 608.5, 1170.0 ],
					"source" : [ "obj-17", 0 ]
				}

			}
, 			{
				"patchline" : 				{
					"destination" : [ "obj-19", 0 ],
					"source" : [ "obj-18", 1 ]
				}

			}
, 			{
				"patchline" : 				{
					"destination" : [ "obj-7", 0 ],
					"midpoints" : [ 1741.416627168655396, 1170.0, 608.5, 1170.0 ],
					"source" : [ "obj-19", 0 ]
				}

			}
, 			{
				"patchline" : 				{
					"destination" : [ "obj-28", 0 ],
					"source" : [ "obj-27", 0 ]
				}

			}
, 			{
				"patchline" : 				{
					"destination" : [ "obj-7", 0 ],
					"midpoints" : [ 1832.416627168655396, 1170.0, 608.5, 1170.0 ],
					"source" : [ "obj-28", 0 ]
				}

			}
, 			{
				"patchline" : 				{
					"destination" : [ "obj-17", 0 ],
					"source" : [ "obj-29", 1 ]
				}

			}
, 			{
				"patchline" : 				{
					"destination" : [ "obj-27", 0 ],
					"midpoints" : [ 1983.916627168655396, 1064.250000715255737, 2049.416627168655396, 1064.250000715255737, 2049.416627168655396, 983.250000715255737, 1832.416627168655396, 983.250000715255737 ],
					"source" : [ "obj-29", 0 ]
				}

			}
, 			{
				"patchline" : 				{
					"destination" : [ "obj-6", 0 ],
					"source" : [ "obj-32", 0 ]
				}

			}
, 			{
				"patchline" : 				{
					"destination" : [ "obj-37", 0 ],
					"midpoints" : [ 608.5, 127.0, 608.5, 127.0 ],
					"source" : [ "obj-33", 0 ]
				}

			}
, 			{
				"patchline" : 				{
					"destination" : [ "obj-7", 0 ],
					"midpoints" : [ 1233.222935199737549, 1170.0, 608.5, 1170.0 ],
					"source" : [ "obj-34", 0 ]
				}

			}
, 			{
				"patchline" : 				{
					"destination" : [ "obj-34", 0 ],
					"source" : [ "obj-35", 1 ]
				}

			}
, 			{
				"patchline" : 				{
					"destination" : [ "obj-7", 0 ],
					"midpoints" : [ 2285.896844208240509, 1170.0, 608.5, 1170.0 ],
					"source" : [ "obj-36", 0 ]
				}

			}
, 			{
				"patchline" : 				{
					"destination" : [ "obj-40", 0 ],
					"midpoints" : [ 608.5, 160.0, 608.5, 160.0 ],
					"source" : [ "obj-37", 0 ]
				}

			}
, 			{
				"patchline" : 				{
					"destination" : [ "obj-36", 0 ],
					"source" : [ "obj-38", 0 ]
				}

			}
, 			{
				"patchline" : 				{
					"destination" : [ "obj-46", 1 ],
					"source" : [ "obj-39", 0 ]
				}

			}
, 			{
				"patchline" : 				{
					"destination" : [ "obj-33", 0 ],
					"source" : [ "obj-4", 0 ]
				}

			}
, 			{
				"patchline" : 				{
					"destination" : [ "obj-42", 0 ],
					"source" : [ "obj-40", 0 ]
				}

			}
, 			{
				"patchline" : 				{
					"destination" : [ "obj-9", 0 ],
					"source" : [ "obj-41", 0 ]
				}

			}
, 			{
				"patchline" : 				{
					"destination" : [ "obj-41", 0 ],
					"source" : [ "obj-42", 0 ]
				}

			}
, 			{
				"patchline" : 				{
					"destination" : [ "obj-61", 1 ],
					"midpoints" : [ 1491.427765607833862, 876.0, 1317.790098071098328, 876.0 ],
					"source" : [ "obj-46", 0 ]
				}

			}
, 			{
				"patchline" : 				{
					"destination" : [ "obj-64", 0 ],
					"source" : [ "obj-48", 0 ]
				}

			}
, 			{
				"patchline" : 				{
					"destination" : [ "obj-46", 0 ],
					"source" : [ "obj-49", 0 ]
				}

			}
, 			{
				"patchline" : 				{
					"destination" : [ "obj-7", 0 ],
					"source" : [ "obj-5", 0 ]
				}

			}
, 			{
				"patchline" : 				{
					"destination" : [ "obj-29", 0 ],
					"source" : [ "obj-56", 1 ]
				}

			}
, 			{
				"patchline" : 				{
					"destination" : [ "obj-35", 0 ],
					"source" : [ "obj-57", 0 ]
				}

			}
, 			{
				"patchline" : 				{
					"destination" : [ "obj-49", 0 ],
					"midpoints" : [ 1204.222935199737549, 780.168676257133484, 1494.0, 780.168676257133484, 1494.0, 780.0, 1491.427765607833862, 780.0 ],
					"order" : 0,
					"source" : [ "obj-58", 1 ]
				}

			}
, 			{
				"patchline" : 				{
					"destination" : [ "obj-68", 0 ],
					"midpoints" : [ 1204.222935199737549, 789.0, 778.011370420455933, 789.0 ],
					"order" : 1,
					"source" : [ "obj-58", 1 ]
				}

			}
, 			{
				"patchline" : 				{
					"destination" : [ "obj-77", 0 ],
					"midpoints" : [ 1190.222935199737549, 780.0, 1190.222935199737549, 780.0 ],
					"source" : [ "obj-58", 0 ]
				}

			}
, 			{
				"patchline" : 				{
					"destination" : [ "obj-7", 0 ],
					"midpoints" : [ 2140.916627168655396, 1170.0, 608.5, 1170.0 ],
					"source" : [ "obj-6", 0 ]
				}

			}
, 			{
				"patchline" : 				{
					"destination" : [ "obj-62", 0 ],
					"source" : [ "obj-61", 0 ]
				}

			}
, 			{
				"patchline" : 				{
					"destination" : [ "obj-57", 0 ],
					"source" : [ "obj-62", 0 ]
				}

			}
, 			{
				"patchline" : 				{
					"destination" : [ "obj-58", 0 ],
					"source" : [ "obj-64", 1 ]
				}

			}
, 			{
				"patchline" : 				{
					"destination" : [ "obj-75", 0 ],
					"source" : [ "obj-64", 0 ]
				}

			}
, 			{
				"patchline" : 				{
					"destination" : [ "obj-75", 1 ],
					"source" : [ "obj-65", 0 ]
				}

			}
, 			{
				"patchline" : 				{
					"destination" : [ "obj-49", 2 ],
					"source" : [ "obj-67", 0 ]
				}

			}
, 			{
				"patchline" : 				{
					"destination" : [ "obj-69", 0 ],
					"source" : [ "obj-68", 0 ]
				}

			}
, 			{
				"patchline" : 				{
					"destination" : [ "obj-65", 0 ],
					"source" : [ "obj-69", 0 ]
				}

			}
, 			{
				"patchline" : 				{
					"destination" : [ "obj-10", 1 ],
					"source" : [ "obj-7", 1 ]
				}

			}
, 			{
				"patchline" : 				{
					"destination" : [ "obj-10", 0 ],
					"source" : [ "obj-7", 0 ]
				}

			}
, 			{
				"patchline" : 				{
					"destination" : [ "obj-69", 1 ],
					"source" : [ "obj-70", 0 ]
				}

			}
, 			{
				"patchline" : 				{
					"destination" : [ "obj-68", 2 ],
					"source" : [ "obj-71", 0 ]
				}

			}
, 			{
				"patchline" : 				{
					"destination" : [ "obj-49", 2 ],
					"order" : 0,
					"source" : [ "obj-72", 0 ]
				}

			}
, 			{
				"patchline" : 				{
					"destination" : [ "obj-68", 2 ],
					"order" : 3,
					"source" : [ "obj-72", 0 ]
				}

			}
, 			{
				"patchline" : 				{
					"destination" : [ "obj-77", 2 ],
					"order" : 2,
					"source" : [ "obj-72", 0 ]
				}

			}
, 			{
				"patchline" : 				{
					"destination" : [ "obj-83", 2 ],
					"order" : 1,
					"source" : [ "obj-72", 0 ]
				}

			}
, 			{
				"patchline" : 				{
					"destination" : [ "obj-14", 0 ],
					"source" : [ "obj-75", 0 ]
				}

			}
, 			{
				"patchline" : 				{
					"destination" : [ "obj-77", 2 ],
					"source" : [ "obj-76", 0 ]
				}

			}
, 			{
				"patchline" : 				{
					"destination" : [ "obj-78", 0 ],
					"source" : [ "obj-77", 0 ]
				}

			}
, 			{
				"patchline" : 				{
					"destination" : [ "obj-61", 0 ],
					"midpoints" : [ 1190.222935199737549, 876.0, 1190.222935199737549, 876.0 ],
					"source" : [ "obj-78", 0 ]
				}

			}
, 			{
				"patchline" : 				{
					"destination" : [ "obj-78", 1 ],
					"source" : [ "obj-79", 0 ]
				}

			}
, 			{
				"patchline" : 				{
					"destination" : [ "obj-48", 0 ],
					"order" : 1,
					"source" : [ "obj-80", 0 ]
				}

			}
, 			{
				"patchline" : 				{
					"destination" : [ "obj-83", 0 ],
					"order" : 0,
					"source" : [ "obj-80", 0 ]
				}

			}
, 			{
				"patchline" : 				{
					"destination" : [ "obj-80", 0 ],
					"source" : [ "obj-82", 0 ]
				}

			}
, 			{
				"patchline" : 				{
					"destination" : [ "obj-84", 0 ],
					"source" : [ "obj-83", 0 ]
				}

			}
, 			{
				"patchline" : 				{
					"destination" : [ "obj-85", 0 ],
					"source" : [ "obj-84", 0 ]
				}

			}
, 			{
				"patchline" : 				{
					"destination" : [ "obj-82", 0 ],
					"midpoints" : [ 1399.920010805130005, 651.0, 1474.0, 651.0, 1474.0, 429.0, 1176.0438312292099, 429.0 ],
					"source" : [ "obj-85", 0 ]
				}

			}
, 			{
				"patchline" : 				{
					"destination" : [ "obj-1", 0 ],
					"source" : [ "obj-9", 0 ]
				}

			}
, 			{
				"patchline" : 				{
					"destination" : [ "obj-15", 0 ],
					"source" : [ "obj-9", 1 ]
				}

			}
 ],
		"parameters" : 		{
			"obj-10" : [ "live.gain~", "live.gain~", 0 ],
			"obj-32" : [ "Freqloss", "freq. loss", 0 ],
			"obj-38" : [ "Constloss", "const. loss", 0 ],
			"parameterbanks" : 			{
				"0" : 				{
					"index" : 0,
					"name" : "",
					"parameters" : [ "-", "-", "-", "-", "-", "-", "-", "-" ]
				}

			}
,
			"inherited_shortname" : 1
		}
,
		"dependency_cache" : [ 			{
				"name" : "bs.mlys-material.maxpat",
				"bootpath" : "~/OneDrive/Documents/Max 8/Projects/modalys",
				"patcherrelativepath" : ".",
				"type" : "JSON",
				"implicit" : 1
			}
, 			{
				"name" : "duration-seq2.maxpat",
				"bootpath" : "~/OneDrive/Documents/Max 8/Projects/seqs",
				"patcherrelativepath" : "../seqs",
				"type" : "JSON",
				"implicit" : 1
			}
, 			{
				"name" : "fellSeq.gendsp",
				"bootpath" : "~/OneDrive/Documents/Max 8/Projects/seqs",
				"patcherrelativepath" : "../seqs",
				"type" : "gDSP",
				"implicit" : 1
			}
, 			{
				"name" : "list2buf.maxpat",
				"bootpath" : "~/OneDrive/Documents/Max 8/Projects/seqs",
				"patcherrelativepath" : "../seqs",
				"type" : "JSON",
				"implicit" : 1
			}
, 			{
				"name" : "materials2.txt",
				"bootpath" : "~/OneDrive/Documents/Max 8/Projects/modalys",
				"patcherrelativepath" : ".",
				"type" : "TEXT",
				"implicit" : 1
			}
, 			{
				"name" : "mlys-param.maxpat",
				"bootpath" : "~/OneDrive/Documents/Max 8/Projects/modalys",
				"patcherrelativepath" : ".",
				"type" : "JSON",
				"implicit" : 1
			}
, 			{
				"name" : "mlys-param_s.maxpat",
				"bootpath" : "~/OneDrive/Documents/Max 8/Projects/modalys",
				"patcherrelativepath" : ".",
				"type" : "JSON",
				"implicit" : 1
			}
, 			{
				"name" : "mlys.felt.mxe64",
				"type" : "mx64"
			}
, 			{
				"name" : "mlys.point-input.mxe64",
				"type" : "mx64"
			}
, 			{
				"name" : "mlys.point-output.mxe64",
				"type" : "mx64"
			}
, 			{
				"name" : "mlys.position.mxe64",
				"type" : "mx64"
			}
, 			{
				"name" : "mlys.rect-plate.mxe64",
				"type" : "mx64"
			}
, 			{
				"name" : "mlys.script.mxe64",
				"type" : "mx64"
			}
, 			{
				"name" : "mlys.signal.mxe64",
				"type" : "mx64"
			}
, 			{
				"name" : "mlys.single-point.mxe64",
				"type" : "mx64"
			}
, 			{
				"name" : "modalys~.mxe64",
				"type" : "mx64"
			}
 ],
		"autosave" : 0,
		"styles" : [ 			{
				"name" : "blacko",
				"default" : 				{
					"accentcolor" : [ 0.184313725490196, 0.184313725490196, 0.184313725490196, 1.0 ],
					"bgcolor" : [ 0.184313725490196, 0.184313725490196, 0.184313725490196, 1.0 ],
					"editing_bgcolor" : [ 0.094117647058824, 0.058823529411765, 0.050980392156863, 1.0 ],
					"elementcolor" : [ 0.34902, 0.34902, 0.34902, 1.0 ],
					"fontname" : [ "Ableton Sans" ],
					"locked_bgcolor" : [ 0.07843137254902, 0.047058823529412, 0.043137254901961, 1.0 ],
					"stripecolor" : [ 0.243137, 0.243137, 0.243137, 1.0 ],
					"textcolor" : [ 1.0, 1.0, 1.0, 1.0 ],
					"textjustification" : [ 0 ]
				}
,
				"parentstyle" : "",
				"multi" : 0
			}
 ]
	}

}
