{
	"patcher" : 	{
		"fileversion" : 1,
		"appversion" : 		{
			"major" : 8,
			"minor" : 5,
			"revision" : 4,
			"architecture" : "x64",
			"modernui" : 1
		}
,
		"classnamespace" : "box",
		"rect" : [ 148.0, 220.0, 365.0, 541.0 ],
		"bglocked" : 0,
		"openinpresentation" : 1,
		"default_fontsize" : 12.0,
		"default_fontface" : 0,
		"default_fontname" : "Ableton Sans",
		"gridonopen" : 1,
		"gridsize" : [ 15.0, 15.0 ],
		"gridsnaponopen" : 1,
		"objectsnaponopen" : 1,
		"statusbarvisible" : 2,
		"toolbarvisible" : 1,
		"lefttoolbarpinned" : 0,
		"toptoolbarpinned" : 0,
		"righttoolbarpinned" : 0,
		"bottomtoolbarpinned" : 0,
		"toolbars_unpinned_last_save" : 15,
		"tallnewobj" : 0,
		"boxanimatetime" : 200,
		"enablehscroll" : 1,
		"enablevscroll" : 1,
		"devicewidth" : 0.0,
		"description" : "",
		"digest" : "",
		"tags" : "",
		"style" : "blacko",
		"subpatcher_template" : "Blacko",
		"assistshowspatchername" : 0,
		"boxes" : [ 			{
				"box" : 				{
					"bgcolor" : [ 0.184313725490196, 0.184313725490196, 0.184313725490196, 0.0 ],
					"id" : "obj-2",
					"maxclass" : "nodes",
					"nodecolor" : [ 0.349019607843137, 0.349019607843137, 0.349019607843137, 0.22 ],
					"nodenumber" : 2,
					"nodesnames" : [ "1", "2" ],
					"nsize" : [ 0.2, 0.2 ],
					"numinlets" : 1,
					"numoutlets" : 3,
					"outlettype" : [ "", "", "" ],
					"parameter_enable" : 0,
					"patching_rect" : [ 662.625766515731812, 478.964117407798767, 183.0, 184.0 ],
					"presentation" : 1,
					"presentation_rect" : [ 68.0, 206.719508647918701, 224.0, 225.22404371584696 ],
					"textcolor" : [ 0.0, 0.0, 0.0, 1.0 ],
					"xplace" : [ 0.540178571428571, 0.544642857142857 ],
					"yplace" : [ 0.405287507701642, 0.871489953353816 ]
				}

			}
, 			{
				"box" : 				{
					"id" : "obj-4",
					"maxclass" : "newobj",
					"numinlets" : 2,
					"numoutlets" : 2,
					"outlettype" : [ "float", "int" ],
					"patching_rect" : [ 83.711270999999996, 865.076758980468753, 94.0, 23.0 ],
					"text" : "maximum 0.008"
				}

			}
, 			{
				"box" : 				{
					"fontsize" : 10.5,
					"id" : "obj-12",
					"maxclass" : "live.dial",
					"numinlets" : 1,
					"numoutlets" : 2,
					"outlettype" : [ "", "float" ],
					"parameter_enable" : 1,
					"patching_rect" : [ 787.58495020866394, 225.630790114402771, 56.0, 51.0 ],
					"presentation" : 1,
					"presentation_rect" : [ 86.5, 129.842105627059937, 52.0, 51.0 ],
					"saved_attribute_attributes" : 					{
						"textcolor" : 						{
							"expression" : ""
						}
,
						"valueof" : 						{
							"parameter_exponent" : 2.0,
							"parameter_initial" : [ 1 ],
							"parameter_initial_enable" : 1,
							"parameter_linknames" : 1,
							"parameter_longname" : "Constloss[1]",
							"parameter_mmax" : 5.0,
							"parameter_modmode" : 2,
							"parameter_shortname" : "thickness",
							"parameter_type" : 0,
							"parameter_unitstyle" : 1
						}

					}
,
					"textcolor" : [ 1.0, 1.0, 1.0, 1.0 ],
					"varname" : "Constloss[1]"
				}

			}
, 			{
				"box" : 				{
					"id" : "obj-8",
					"maxclass" : "newobj",
					"numinlets" : 1,
					"numoutlets" : 1,
					"outlettype" : [ "" ],
					"patcher" : 					{
						"fileversion" : 1,
						"appversion" : 						{
							"major" : 8,
							"minor" : 5,
							"revision" : 4,
							"architecture" : "x64",
							"modernui" : 1
						}
,
						"classnamespace" : "box",
						"rect" : [ 42.0, 85.0, 971.0, 913.0 ],
						"bglocked" : 0,
						"openinpresentation" : 0,
						"default_fontsize" : 12.0,
						"default_fontface" : 0,
						"default_fontname" : "Ableton Sans",
						"gridonopen" : 1,
						"gridsize" : [ 15.0, 15.0 ],
						"gridsnaponopen" : 1,
						"objectsnaponopen" : 1,
						"statusbarvisible" : 2,
						"toolbarvisible" : 1,
						"lefttoolbarpinned" : 0,
						"toptoolbarpinned" : 0,
						"righttoolbarpinned" : 0,
						"bottomtoolbarpinned" : 0,
						"toolbars_unpinned_last_save" : 0,
						"tallnewobj" : 0,
						"boxanimatetime" : 200,
						"enablehscroll" : 1,
						"enablevscroll" : 1,
						"devicewidth" : 0.0,
						"description" : "",
						"digest" : "",
						"tags" : "",
						"style" : "blacko",
						"subpatcher_template" : "Blacko",
						"assistshowspatchername" : 0,
						"boxes" : [ 							{
								"box" : 								{
									"id" : "obj-223",
									"maxclass" : "newobj",
									"numinlets" : 1,
									"numoutlets" : 1,
									"outlettype" : [ "" ],
									"patching_rect" : [ 162.09296989440918, 199.967897176742554, 72.0, 23.0 ],
									"text" : "fromsymbol"
								}

							}
, 							{
								"box" : 								{
									"id" : "obj-176",
									"maxclass" : "newobj",
									"numinlets" : 2,
									"numoutlets" : 2,
									"outlettype" : [ "", "" ],
									"patching_rect" : [ 50.0, 130.232811212539673, 49.0, 23.0 ],
									"text" : "zl.iter 2"
								}

							}
, 							{
								"box" : 								{
									"fontname" : "Arial",
									"fontsize" : 11.0,
									"id" : "obj-150",
									"maxclass" : "message",
									"numinlets" : 2,
									"numoutlets" : 1,
									"outlettype" : [ "" ],
									"patching_rect" : [ 274.185939788818359, 293.236212015151978, 85.0, 21.0 ],
									"text" : "bd@poisson $1"
								}

							}
, 							{
								"box" : 								{
									"fontname" : "Arial",
									"fontsize" : 11.0,
									"id" : "obj-149",
									"maxclass" : "message",
									"numinlets" : 2,
									"numoutlets" : 1,
									"outlettype" : [ "" ],
									"patching_rect" : [ 162.09296989440918, 259.236212015151978, 92.0, 21.0 ],
									"text" : "bd@young $1 $2"
								}

							}
, 							{
								"box" : 								{
									"fontname" : "Arial",
									"fontsize" : 11.0,
									"id" : "obj-148",
									"maxclass" : "message",
									"numinlets" : 2,
									"numoutlets" : 1,
									"outlettype" : [ "" ],
									"patching_rect" : [ 50.0, 228.236212015151978, 82.0, 21.0 ],
									"text" : "bd@density $1"
								}

							}
, 							{
								"box" : 								{
									"id" : "obj-146",
									"maxclass" : "newobj",
									"numinlets" : 4,
									"numoutlets" : 4,
									"outlettype" : [ "", "", "", "" ],
									"patching_rect" : [ 50.0, 158.386656999588013, 355.278909683227539, 23.0 ],
									"text" : "route density young poisson"
								}

							}
, 							{
								"box" : 								{
									"id" : "obj-142",
									"maxclass" : "newobj",
									"numinlets" : 1,
									"numoutlets" : 4,
									"outlettype" : [ "", "", "", "" ],
									"patching_rect" : [ 50.0, 100.0, 87.0, 23.0 ],
									"saved_object_attributes" : 									{
										"embed" : 0,
										"precision" : 6
									}
,
									"text" : "coll materials2"
								}

							}
, 							{
								"box" : 								{
									"comment" : "",
									"id" : "obj-314",
									"index" : 1,
									"maxclass" : "inlet",
									"numinlets" : 0,
									"numoutlets" : 1,
									"outlettype" : [ "" ],
									"patching_rect" : [ 49.999939720909197, 39.999977652900725, 30.0, 30.0 ]
								}

							}
, 							{
								"box" : 								{
									"comment" : "",
									"id" : "obj-315",
									"index" : 1,
									"maxclass" : "outlet",
									"numinlets" : 1,
									"numoutlets" : 0,
									"patching_rect" : [ 156.092956720909115, 340.236183652900763, 30.0, 30.0 ]
								}

							}
 ],
						"lines" : [ 							{
								"patchline" : 								{
									"destination" : [ "obj-176", 0 ],
									"source" : [ "obj-142", 0 ]
								}

							}
, 							{
								"patchline" : 								{
									"destination" : [ "obj-148", 0 ],
									"source" : [ "obj-146", 0 ]
								}

							}
, 							{
								"patchline" : 								{
									"destination" : [ "obj-150", 0 ],
									"source" : [ "obj-146", 2 ]
								}

							}
, 							{
								"patchline" : 								{
									"destination" : [ "obj-223", 0 ],
									"source" : [ "obj-146", 1 ]
								}

							}
, 							{
								"patchline" : 								{
									"destination" : [ "obj-315", 0 ],
									"source" : [ "obj-148", 0 ]
								}

							}
, 							{
								"patchline" : 								{
									"destination" : [ "obj-315", 0 ],
									"source" : [ "obj-149", 0 ]
								}

							}
, 							{
								"patchline" : 								{
									"destination" : [ "obj-315", 0 ],
									"source" : [ "obj-150", 0 ]
								}

							}
, 							{
								"patchline" : 								{
									"destination" : [ "obj-146", 0 ],
									"source" : [ "obj-176", 0 ]
								}

							}
, 							{
								"patchline" : 								{
									"destination" : [ "obj-149", 0 ],
									"source" : [ "obj-223", 0 ]
								}

							}
, 							{
								"patchline" : 								{
									"destination" : [ "obj-142", 0 ],
									"source" : [ "obj-314", 0 ]
								}

							}
 ],
						"styles" : [ 							{
								"name" : "blacko",
								"default" : 								{
									"accentcolor" : [ 0.184313725490196, 0.184313725490196, 0.184313725490196, 1.0 ],
									"bgcolor" : [ 0.184313725490196, 0.184313725490196, 0.184313725490196, 1.0 ],
									"editing_bgcolor" : [ 0.094117647058824, 0.058823529411765, 0.050980392156863, 1.0 ],
									"elementcolor" : [ 0.34902, 0.34902, 0.34902, 1.0 ],
									"fontname" : [ "Ableton Sans" ],
									"locked_bgcolor" : [ 0.07843137254902, 0.047058823529412, 0.043137254901961, 1.0 ],
									"stripecolor" : [ 0.243137, 0.243137, 0.243137, 1.0 ],
									"textcolor" : [ 1.0, 1.0, 1.0, 1.0 ],
									"textjustification" : [ 0 ]
								}
,
								"parentstyle" : "",
								"multi" : 0
							}
 ]
					}
,
					"patching_rect" : [ 864.870663602210925, 159.345076203346252, 68.0, 23.0 ],
					"saved_object_attributes" : 					{
						"description" : "",
						"digest" : "",
						"fontname" : "Ableton Sans",
						"globalpatchername" : "",
						"style" : "blacko",
						"tags" : ""
					}
,
					"text" : "p materials"
				}

			}
, 			{
				"box" : 				{
					"id" : "obj-11",
					"items" : [ "Aluminium", ",", "Bismuth", ",", "Brass", ",", "Bronze", ",", "Cesium", ",", "Copper", ",", "Gold", ",", "Iridium", ",", "Iron", ",", "Lead", ",", "Lithium", ",", "Magnesium", ",", "Mercury", ",", "Nickel", ",", "Osmium", ",", "Platinum", ",", "Silver", ",", "Steel", ",", "Tin", ",", "Titanium", ",", "Tungsten", ",", "Zinc", ",", "Diamond", ",", "Granite", ",", "Graphite", ",", "Limestone", ",", "Marble", ",", "Quartz", ",", "Sandstone", ",", "Sapphire", ",", "Shale", ",", "Silicon", ",", "Uranium", ",", "Carbon_Fiber", ",", "Catgut", ",", "Flax_Fiber", ",", "Hemp_Fiber", ",", "Horse_Hair", ",", "Nylon", ",", "Silkworm_Silk", ",", "Spider_Silk", ",", "Bone", ",", "Carrot", ",", "Concrete", ",", "Cork", ",", "Glass(Borosilicate)", ",", "Glass(Soda-Lime)", ",", "Ice", ",", "Marshmallow", ",", "Olive_oil", ",", "Rubber(hard)", ",", "Rubber(soft)", ",", "Seawater", ",", "Tooth_enamel", ",", "Water" ],
					"maxclass" : "umenu",
					"numinlets" : 1,
					"numoutlets" : 3,
					"outlettype" : [ "int", "", "" ],
					"parameter_enable" : 0,
					"patching_rect" : [ 760.08495020866394, 159.345076203346252, 100.0, 23.0 ],
					"presentation" : 1,
					"presentation_rect" : [ 146.5, 143.842105627059937, 100.0, 23.0 ]
				}

			}
, 			{
				"box" : 				{
					"id" : "obj-25",
					"maxclass" : "newobj",
					"numinlets" : 1,
					"numoutlets" : 1,
					"outlettype" : [ "float" ],
					"patcher" : 					{
						"fileversion" : 1,
						"appversion" : 						{
							"major" : 8,
							"minor" : 5,
							"revision" : 4,
							"architecture" : "x64",
							"modernui" : 1
						}
,
						"classnamespace" : "box",
						"rect" : [ 42.0, 85.0, 971.0, 913.0 ],
						"bglocked" : 0,
						"openinpresentation" : 0,
						"default_fontsize" : 12.0,
						"default_fontface" : 0,
						"default_fontname" : "Ableton Sans",
						"gridonopen" : 1,
						"gridsize" : [ 15.0, 15.0 ],
						"gridsnaponopen" : 1,
						"objectsnaponopen" : 1,
						"statusbarvisible" : 2,
						"toolbarvisible" : 1,
						"lefttoolbarpinned" : 0,
						"toptoolbarpinned" : 0,
						"righttoolbarpinned" : 0,
						"bottomtoolbarpinned" : 0,
						"toolbars_unpinned_last_save" : 0,
						"tallnewobj" : 0,
						"boxanimatetime" : 200,
						"enablehscroll" : 1,
						"enablevscroll" : 1,
						"devicewidth" : 0.0,
						"description" : "",
						"digest" : "",
						"tags" : "",
						"style" : "blacko",
						"subpatcher_template" : "Blacko",
						"assistshowspatchername" : 0,
						"visible" : 1,
						"boxes" : [ 							{
								"box" : 								{
									"id" : "obj-17",
									"maxclass" : "newobj",
									"numinlets" : 1,
									"numoutlets" : 1,
									"outlettype" : [ "float" ],
									"patching_rect" : [ 50.0, 382.538734316825867, 119.0, 23.0 ],
									"text" : "dirt-param force 0.4"
								}

							}
, 							{
								"box" : 								{
									"id" : "obj-337",
									"maxclass" : "newobj",
									"numinlets" : 2,
									"numoutlets" : 2,
									"outlettype" : [ "", "" ],
									"patching_rect" : [ 50.0, 100.0, 64.0, 23.0 ],
									"text" : "route tidal"
								}

							}
, 							{
								"box" : 								{
									"comment" : "",
									"id" : "obj-23",
									"index" : 1,
									"maxclass" : "inlet",
									"numinlets" : 0,
									"numoutlets" : 1,
									"outlettype" : [ "" ],
									"patching_rect" : [ 50.000001773593908, 40.000001476272587, 30.0, 30.0 ]
								}

							}
, 							{
								"box" : 								{
									"comment" : "",
									"id" : "obj-24",
									"index" : 1,
									"maxclass" : "outlet",
									"numinlets" : 1,
									"numoutlets" : 0,
									"patching_rect" : [ 91.147058773593898, 509.842088476272579, 30.0, 30.0 ]
								}

							}
 ],
						"lines" : [ 							{
								"patchline" : 								{
									"destination" : [ "obj-24", 0 ],
									"source" : [ "obj-17", 0 ]
								}

							}
, 							{
								"patchline" : 								{
									"destination" : [ "obj-337", 0 ],
									"source" : [ "obj-23", 0 ]
								}

							}
, 							{
								"patchline" : 								{
									"destination" : [ "obj-17", 0 ],
									"source" : [ "obj-337", 0 ]
								}

							}
 ],
						"styles" : [ 							{
								"name" : "blacko",
								"default" : 								{
									"accentcolor" : [ 0.184313725490196, 0.184313725490196, 0.184313725490196, 1.0 ],
									"bgcolor" : [ 0.184313725490196, 0.184313725490196, 0.184313725490196, 1.0 ],
									"editing_bgcolor" : [ 0.094117647058824, 0.058823529411765, 0.050980392156863, 1.0 ],
									"elementcolor" : [ 0.34902, 0.34902, 0.34902, 1.0 ],
									"fontname" : [ "Ableton Sans" ],
									"locked_bgcolor" : [ 0.07843137254902, 0.047058823529412, 0.043137254901961, 1.0 ],
									"stripecolor" : [ 0.243137, 0.243137, 0.243137, 1.0 ],
									"textcolor" : [ 1.0, 1.0, 1.0, 1.0 ],
									"textjustification" : [ 0 ]
								}
,
								"parentstyle" : "",
								"multi" : 0
							}
 ]
					}
,
					"patching_rect" : [ 83.711270999999996, 191.578933000000006, 76.0, 23.0 ],
					"saved_object_attributes" : 					{
						"description" : "",
						"digest" : "",
						"fontname" : "Ableton Sans",
						"globalpatchername" : "",
						"style" : "blacko",
						"tags" : ""
					}
,
					"text" : "p tidal-listen"
				}

			}
, 			{
				"box" : 				{
					"id" : "obj-341",
					"maxclass" : "newobj",
					"numinlets" : 1,
					"numoutlets" : 1,
					"outlettype" : [ "bang" ],
					"patching_rect" : [ 555.499997615814209, 451.964117407798767, 58.0, 23.0 ],
					"text" : "loadbang"
				}

			}
, 			{
				"box" : 				{
					"id" : "obj-340",
					"maxclass" : "newobj",
					"numinlets" : 1,
					"numoutlets" : 0,
					"patching_rect" : [ 665.113663628697395, 1593.976969003677368, 44.0, 23.0 ],
					"saved_object_attributes" : 					{
						"attr_comment" : ""
					}
,
					"text" : "out~ 2"
				}

			}
, 			{
				"box" : 				{
					"id" : "obj-339",
					"maxclass" : "newobj",
					"numinlets" : 1,
					"numoutlets" : 0,
					"patching_rect" : [ 615.639076709747314, 1593.976969003677368, 44.0, 23.0 ],
					"saved_object_attributes" : 					{
						"attr_comment" : ""
					}
,
					"text" : "out~ 1"
				}

			}
, 			{
				"box" : 				{
					"id" : "obj-336",
					"maxclass" : "newobj",
					"numinlets" : 1,
					"numoutlets" : 1,
					"outlettype" : [ "" ],
					"patching_rect" : [ 83.711271226406097, 129.661651611328125, 28.0, 23.0 ],
					"saved_object_attributes" : 					{
						"attr_comment" : ""
					}
,
					"text" : "in 1"
				}

			}
, 			{
				"box" : 				{
					"id" : "obj-334",
					"maxclass" : "comment",
					"numinlets" : 1,
					"numoutlets" : 0,
					"patching_rect" : [ 1045.371799945831299, 416.131332635879517, 44.065940737724304, 21.0 ],
					"presentation" : 1,
					"presentation_rect" : [ 246.685226082801819, 49.842105627059937, 45.475715160369873, 21.0 ],
					"text" : "notes"
				}

			}
, 			{
				"box" : 				{
					"id" : "obj-330",
					"maxclass" : "newobj",
					"numinlets" : 4,
					"numoutlets" : 1,
					"outlettype" : [ "" ],
					"patcher" : 					{
						"fileversion" : 1,
						"appversion" : 						{
							"major" : 8,
							"minor" : 5,
							"revision" : 4,
							"architecture" : "x64",
							"modernui" : 1
						}
,
						"classnamespace" : "box",
						"rect" : [ 42.0, 85.0, 971.0, 913.0 ],
						"bglocked" : 0,
						"openinpresentation" : 0,
						"default_fontsize" : 12.0,
						"default_fontface" : 0,
						"default_fontname" : "Ableton Sans",
						"gridonopen" : 1,
						"gridsize" : [ 15.0, 15.0 ],
						"gridsnaponopen" : 1,
						"objectsnaponopen" : 1,
						"statusbarvisible" : 2,
						"toolbarvisible" : 1,
						"lefttoolbarpinned" : 0,
						"toptoolbarpinned" : 0,
						"righttoolbarpinned" : 0,
						"bottomtoolbarpinned" : 0,
						"toolbars_unpinned_last_save" : 0,
						"tallnewobj" : 0,
						"boxanimatetime" : 200,
						"enablehscroll" : 1,
						"enablevscroll" : 1,
						"devicewidth" : 0.0,
						"description" : "",
						"digest" : "",
						"tags" : "",
						"style" : "blacko",
						"subpatcher_template" : "Blacko",
						"assistshowspatchername" : 0,
						"boxes" : [ 							{
								"box" : 								{
									"id" : "obj-3",
									"maxclass" : "newobj",
									"numinlets" : 2,
									"numoutlets" : 1,
									"outlettype" : [ "float" ],
									"patching_rect" : [ 355.000022290252673, 94.537411673542024, 49.0, 23.0 ],
									"text" : "/ 1000."
								}

							}
, 							{
								"box" : 								{
									"fontname" : "Arial",
									"fontsize" : 11.0,
									"id" : "obj-2",
									"maxclass" : "message",
									"numinlets" : 2,
									"numoutlets" : 1,
									"outlettype" : [ "" ],
									"patching_rect" : [ 355.0, 142.074828147888184, 93.0, 21.0 ],
									"text" : "bd@thickness $1"
								}

							}
, 							{
								"box" : 								{
									"comment" : "",
									"id" : "obj-1",
									"index" : 4,
									"maxclass" : "inlet",
									"numinlets" : 0,
									"numoutlets" : 1,
									"outlettype" : [ "" ],
									"patching_rect" : [ 355.000022290252673, 39.999995199195865, 30.0, 30.0 ]
								}

							}
, 							{
								"box" : 								{
									"fontname" : "Arial",
									"fontsize" : 11.0,
									"id" : "obj-26",
									"maxclass" : "message",
									"numinlets" : 2,
									"numoutlets" : 1,
									"outlettype" : [ "" ],
									"patching_rect" : [ 167.0, 146.074828147888184, 97.0, 21.0 ],
									"text" : "bd@const-loss $1"
								}

							}
, 							{
								"box" : 								{
									"fontname" : "Arial",
									"fontsize" : 11.0,
									"id" : "obj-25",
									"maxclass" : "message",
									"numinlets" : 2,
									"numoutlets" : 1,
									"outlettype" : [ "" ],
									"patching_rect" : [ 111.0, 123.0, 89.0, 21.0 ],
									"text" : "bd@freq-loss $1"
								}

							}
, 							{
								"box" : 								{
									"fontname" : "Arial",
									"fontsize" : 11.0,
									"id" : "obj-20",
									"maxclass" : "message",
									"numinlets" : 2,
									"numoutlets" : 1,
									"outlettype" : [ "" ],
									"patching_rect" : [ 50.0, 100.0, 80.0, 21.0 ],
									"text" : "bd@modes $1"
								}

							}
, 							{
								"box" : 								{
									"comment" : "",
									"id" : "obj-326",
									"index" : 1,
									"maxclass" : "inlet",
									"numinlets" : 0,
									"numoutlets" : 1,
									"outlettype" : [ "" ],
									"patching_rect" : [ 50.000022290252673, 39.999995199195865, 30.0, 30.0 ]
								}

							}
, 							{
								"box" : 								{
									"comment" : "",
									"id" : "obj-327",
									"index" : 2,
									"maxclass" : "inlet",
									"numinlets" : 0,
									"numoutlets" : 1,
									"outlettype" : [ "" ],
									"patching_rect" : [ 111.000022290252673, 39.999995199195865, 30.0, 30.0 ]
								}

							}
, 							{
								"box" : 								{
									"comment" : "",
									"id" : "obj-328",
									"index" : 3,
									"maxclass" : "inlet",
									"numinlets" : 0,
									"numoutlets" : 1,
									"outlettype" : [ "" ],
									"patching_rect" : [ 167.000022290252673, 39.999995199195865, 30.0, 30.0 ]
								}

							}
, 							{
								"box" : 								{
									"comment" : "",
									"id" : "obj-329",
									"index" : 1,
									"maxclass" : "outlet",
									"numinlets" : 1,
									"numoutlets" : 0,
									"patching_rect" : [ 103.333335290252649, 227.074839199195878, 30.0, 30.0 ]
								}

							}
 ],
						"lines" : [ 							{
								"patchline" : 								{
									"destination" : [ "obj-3", 0 ],
									"source" : [ "obj-1", 0 ]
								}

							}
, 							{
								"patchline" : 								{
									"destination" : [ "obj-329", 0 ],
									"source" : [ "obj-2", 0 ]
								}

							}
, 							{
								"patchline" : 								{
									"destination" : [ "obj-329", 0 ],
									"source" : [ "obj-20", 0 ]
								}

							}
, 							{
								"patchline" : 								{
									"destination" : [ "obj-329", 0 ],
									"source" : [ "obj-25", 0 ]
								}

							}
, 							{
								"patchline" : 								{
									"destination" : [ "obj-329", 0 ],
									"source" : [ "obj-26", 0 ]
								}

							}
, 							{
								"patchline" : 								{
									"destination" : [ "obj-2", 0 ],
									"source" : [ "obj-3", 0 ]
								}

							}
, 							{
								"patchline" : 								{
									"destination" : [ "obj-20", 0 ],
									"source" : [ "obj-326", 0 ]
								}

							}
, 							{
								"patchline" : 								{
									"destination" : [ "obj-25", 0 ],
									"source" : [ "obj-327", 0 ]
								}

							}
, 							{
								"patchline" : 								{
									"destination" : [ "obj-26", 0 ],
									"source" : [ "obj-328", 0 ]
								}

							}
 ],
						"styles" : [ 							{
								"name" : "blacko",
								"default" : 								{
									"accentcolor" : [ 0.184313725490196, 0.184313725490196, 0.184313725490196, 1.0 ],
									"bgcolor" : [ 0.184313725490196, 0.184313725490196, 0.184313725490196, 1.0 ],
									"editing_bgcolor" : [ 0.094117647058824, 0.058823529411765, 0.050980392156863, 1.0 ],
									"elementcolor" : [ 0.34902, 0.34902, 0.34902, 1.0 ],
									"fontname" : [ "Ableton Sans" ],
									"locked_bgcolor" : [ 0.07843137254902, 0.047058823529412, 0.043137254901961, 1.0 ],
									"stripecolor" : [ 0.243137, 0.243137, 0.243137, 1.0 ],
									"textcolor" : [ 1.0, 1.0, 1.0, 1.0 ],
									"textjustification" : [ 0 ]
								}
,
								"parentstyle" : "",
								"multi" : 0
							}
 ]
					}
,
					"patching_rect" : [ 615.639076709747314, 305.823096637763967, 44.0, 23.0 ],
					"saved_object_attributes" : 					{
						"description" : "",
						"digest" : "",
						"fontname" : "Ableton Sans",
						"globalpatchername" : "",
						"style" : "blacko",
						"tags" : ""
					}
,
					"text" : "p head"
				}

			}
, 			{
				"box" : 				{
					"id" : "obj-307",
					"maxclass" : "newobj",
					"numinlets" : 1,
					"numoutlets" : 1,
					"outlettype" : [ "" ],
					"patching_rect" : [ 83.711270999999996, 916.206169843673706, 105.0, 23.0 ],
					"text" : "expr -0.1-$f1*0.1"
				}

			}
, 			{
				"box" : 				{
					"id" : "obj-263",
					"lastchannelcount" : 0,
					"maxclass" : "live.gain~",
					"numinlets" : 2,
					"numoutlets" : 5,
					"outlettype" : [ "signal", "signal", "", "float", "list" ],
					"parameter_enable" : 1,
					"patching_rect" : [ 615.639076709747314, 1453.938168883323669, 47.0, 120.0 ],
					"saved_attribute_attributes" : 					{
						"textcolor" : 						{
							"expression" : ""
						}
,
						"valueof" : 						{
							"parameter_longname" : "live.gain~[15]",
							"parameter_mmax" : 6.0,
							"parameter_mmin" : -70.0,
							"parameter_shortname" : "mix",
							"parameter_type" : 0,
							"parameter_unitstyle" : 4
						}

					}
,
					"textcolor" : [ 1.0, 1.0, 1.0, 1.0 ],
					"varname" : "live.gain~[4]"
				}

			}
, 			{
				"box" : 				{
					"id" : "obj-260",
					"maxclass" : "newobj",
					"numinlets" : 3,
					"numoutlets" : 1,
					"outlettype" : [ "signal" ],
					"patching_rect" : [ 615.639076709747314, 1406.890954494476318, 67.0, 23.0 ],
					"text" : "clip~ -1. 1."
				}

			}
, 			{
				"box" : 				{
					"id" : "obj-261",
					"maxclass" : "newobj",
					"numinlets" : 1,
					"numoutlets" : 1,
					"outlettype" : [ "signal" ],
					"patching_rect" : [ 716.639076709747314, 1381.890954494476318, 34.0, 23.0 ],
					"text" : "limi~"
				}

			}
, 			{
				"box" : 				{
					"id" : "obj-242",
					"maxclass" : "newobj",
					"numinlets" : 3,
					"numoutlets" : 1,
					"outlettype" : [ "signal" ],
					"patching_rect" : [ 716.639076709747314, 1406.890954494476318, 67.0, 23.0 ],
					"text" : "clip~ -1. 1."
				}

			}
, 			{
				"box" : 				{
					"id" : "obj-216",
					"maxclass" : "newobj",
					"numinlets" : 1,
					"numoutlets" : 1,
					"outlettype" : [ "" ],
					"patching_rect" : [ 1045.371799945831299, 539.183664798736572, 34.0, 23.0 ],
					"text" : "mtof"
				}

			}
, 			{
				"box" : 				{
					"id" : "obj-215",
					"maxclass" : "message",
					"numinlets" : 2,
					"numoutlets" : 1,
					"outlettype" : [ "" ],
					"patching_rect" : [ 1045.371799945831299, 579.319718837738037, 78.0, 23.0 ],
					"text" : "bd@pitch $1"
				}

			}
, 			{
				"box" : 				{
					"id" : "obj-202",
					"maxclass" : "newobj",
					"numinlets" : 2,
					"numoutlets" : 1,
					"outlettype" : [ "float" ],
					"patching_rect" : [ 1045.371799945831299, 467.202004194259644, 36.0, 23.0 ],
					"text" : "+ 60."
				}

			}
, 			{
				"box" : 				{
					"format" : 6,
					"id" : "obj-201",
					"maxclass" : "flonum",
					"numinlets" : 1,
					"numoutlets" : 2,
					"outlettype" : [ "", "bang" ],
					"parameter_enable" : 0,
					"patching_rect" : [ 1045.371799945831299, 439.131332635879517, 50.0, 23.0 ],
					"presentation" : 1,
					"presentation_rect" : [ 194.5, 49.842105627059937, 50.0, 23.0 ]
				}

			}
, 			{
				"box" : 				{
					"color" : [ 0.912555, 0.912555, 0.912555, 1.0 ],
					"fontname" : "Arial",
					"fontsize" : 10.0,
					"id" : "obj-193",
					"maxclass" : "newobj",
					"numinlets" : 1,
					"numoutlets" : 0,
					"patching_rect" : [ 1045.371799945831299, 634.895801305770874, 70.0, 20.0 ],
					"text" : "send #0-bd"
				}

			}
, 			{
				"box" : 				{
					"color" : [ 0.912555, 0.912555, 0.912555, 1.0 ],
					"fontname" : "Arial",
					"fontsize" : 10.0,
					"id" : "obj-192",
					"maxclass" : "newobj",
					"numinlets" : 1,
					"numoutlets" : 0,
					"patching_rect" : [ 1045.371799945831299, 868.395563006401062, 70.0, 20.0 ],
					"text" : "send #0-bd"
				}

			}
, 			{
				"box" : 				{
					"fontname" : "Arial",
					"fontsize" : 12.0,
					"id" : "obj-68",
					"maxclass" : "message",
					"numinlets" : 2,
					"numoutlets" : 1,
					"outlettype" : [ "" ],
					"patching_rect" : [ 1045.371799945831299, 753.395563006401062, 32.5, 22.0 ],
					"text" : "1."
				}

			}
, 			{
				"box" : 				{
					"bgcolor" : [ 0.913725, 0.913725, 0.913725, 0.0 ],
					"blinkcolor" : [ 1.0, 0.89, 0.09, 1.0 ],
					"id" : "obj-66",
					"maxclass" : "button",
					"numinlets" : 1,
					"numoutlets" : 1,
					"outlettype" : [ "bang" ],
					"outlinecolor" : [ 1.0, 0.89, 0.09, 1.0 ],
					"parameter_enable" : 0,
					"patching_rect" : [ 1045.371799945831299, 725.895563006401062, 20.0, 20.0 ]
				}

			}
, 			{
				"box" : 				{
					"fontname" : "Arial",
					"fontsize" : 10.0,
					"id" : "obj-64",
					"maxclass" : "message",
					"numinlets" : 2,
					"numoutlets" : 1,
					"outlettype" : [ "" ],
					"patching_rect" : [ 1045.371799945831299, 837.395563006401062, 145.0, 20.0 ],
					"text" : "setspectraldiffraction bd $1 0.1"
				}

			}
, 			{
				"box" : 				{
					"bgcolor" : [ 0.678431, 1.0, 0.768627, 0.0 ],
					"floatoutput" : 1,
					"id" : "obj-61",
					"knobcolor" : [ 0.2, 0.2, 0.2, 1.0 ],
					"maxclass" : "slider",
					"numinlets" : 1,
					"numoutlets" : 1,
					"outlettype" : [ "" ],
					"parameter_enable" : 1,
					"patching_rect" : [ 1045.371799945831299, 780.895563006401062, 113.0, 22.0 ],
					"saved_attribute_attributes" : 					{
						"valueof" : 						{
							"parameter_initial" : [ 1.0 ],
							"parameter_initial_enable" : 1,
							"parameter_invisible" : 1,
							"parameter_longname" : "slider[2]",
							"parameter_mmax" : 4.0,
							"parameter_shortname" : "slider",
							"parameter_type" : 0
						}

					}
,
					"size" : 4.0,
					"varname" : "slider[3]"
				}

			}
, 			{
				"box" : 				{
					"id" : "obj-167",
					"maxclass" : "message",
					"numinlets" : 2,
					"numoutlets" : 1,
					"outlettype" : [ "" ],
					"patching_rect" : [ 83.711270999999996, 968.913814723491669, 63.0, 23.0 ],
					"text" : "$1 10. 0 1"
				}

			}
, 			{
				"box" : 				{
					"id" : "obj-169",
					"maxclass" : "newobj",
					"numinlets" : 2,
					"numoutlets" : 2,
					"outlettype" : [ "signal", "bang" ],
					"patching_rect" : [ 83.711271226406097, 1016.990738034248352, 35.0, 23.0 ],
					"text" : "line~"
				}

			}
, 			{
				"box" : 				{
					"id" : "obj-141",
					"maxclass" : "newobj",
					"numinlets" : 1,
					"numoutlets" : 0,
					"patching_rect" : [ 813.537424385547638, 1148.352094769477844, 35.0, 23.0 ],
					"text" : "print"
				}

			}
, 			{
				"box" : 				{
					"id" : "obj-140",
					"maxclass" : "message",
					"numinlets" : 2,
					"numoutlets" : 1,
					"outlettype" : [ "" ],
					"patching_rect" : [ 865.649342179298401, 1067.265212178230286, 43.0, 23.0 ],
					"text" : "ctrllist"
				}

			}
, 			{
				"box" : 				{
					"color" : [ 1.0, 0.756862745098039, 0.372549019607843, 1.0 ],
					"fontname" : "Arial",
					"fontsize" : 16.0,
					"id" : "obj-41",
					"maxclass" : "newobj",
					"numinlets" : 1,
					"numoutlets" : 1,
					"outlettype" : [ "" ],
					"patcher" : 					{
						"fileversion" : 1,
						"appversion" : 						{
							"major" : 8,
							"minor" : 5,
							"revision" : 4,
							"architecture" : "x64",
							"modernui" : 1
						}
,
						"classnamespace" : "box",
						"rect" : [ 988.0, 85.0, 890.0, 913.0 ],
						"bglocked" : 0,
						"openinpresentation" : 0,
						"default_fontsize" : 12.0,
						"default_fontface" : 0,
						"default_fontname" : "Arial",
						"gridonopen" : 1,
						"gridsize" : [ 15.0, 15.0 ],
						"gridsnaponopen" : 1,
						"objectsnaponopen" : 1,
						"statusbarvisible" : 2,
						"toolbarvisible" : 1,
						"lefttoolbarpinned" : 0,
						"toptoolbarpinned" : 0,
						"righttoolbarpinned" : 0,
						"bottomtoolbarpinned" : 0,
						"toolbars_unpinned_last_save" : 0,
						"tallnewobj" : 0,
						"boxanimatetime" : 200,
						"enablehscroll" : 1,
						"enablevscroll" : 1,
						"devicewidth" : 0.0,
						"description" : "",
						"digest" : "",
						"tags" : "",
						"style" : "",
						"subpatcher_template" : "",
						"assistshowspatchername" : 0,
						"boxes" : [ 							{
								"box" : 								{
									"fontname" : "Arial",
									"fontsize" : 10.0,
									"id" : "obj-30",
									"maxclass" : "comment",
									"numinlets" : 1,
									"numoutlets" : 0,
									"patching_rect" : [ 1502.308229863643646, 481.051300525665283, 81.6806560754776, 18.0 ],
									"text" : "Mics position (2)",
									"textjustification" : 1
								}

							}
, 							{
								"box" : 								{
									"fontname" : "Arial",
									"fontsize" : 10.0,
									"id" : "obj-8",
									"maxclass" : "comment",
									"numinlets" : 1,
									"numoutlets" : 0,
									"patching_rect" : [ 297.589274406433105, 483.064368546009064, 81.6806560754776, 18.0 ],
									"text" : "Mics position (1)",
									"textjustification" : 1
								}

							}
, 							{
								"box" : 								{
									"fontname" : "Arial",
									"fontsize" : 10.0,
									"id" : "obj-7",
									"maxclass" : "comment",
									"numinlets" : 1,
									"numoutlets" : 0,
									"patching_rect" : [ 104.5, 481.064368546009064, 81.0, 18.0 ],
									"text" : "stick 1 position"
								}

							}
, 							{
								"box" : 								{
									"fontname" : "Arial",
									"fontsize" : 12.0,
									"id" : "obj-47",
									"maxclass" : "message",
									"numinlets" : 2,
									"numoutlets" : 1,
									"outlettype" : [ "" ],
									"patching_rect" : [ 209.485157489776611, 507.064368546009064, 208.0, 22.0 ],
									"text" : "bd@access-out-1-position $1 $2 0.01"
								}

							}
, 							{
								"box" : 								{
									"fontname" : "Arial",
									"fontsize" : 12.0,
									"id" : "obj-44",
									"maxclass" : "message",
									"numinlets" : 2,
									"numoutlets" : 1,
									"outlettype" : [ "" ],
									"patching_rect" : [ 14.5, 505.064368546009064, 174.0, 22.0 ],
									"text" : "bd@access-in-1-position $1 $2"
								}

							}
, 							{
								"box" : 								{
									"comment" : "",
									"id" : "obj-27",
									"index" : 1,
									"maxclass" : "outlet",
									"numinlets" : 1,
									"numoutlets" : 0,
									"patching_rect" : [ 14.5, 629.0, 25.0, 25.0 ]
								}

							}
, 							{
								"box" : 								{
									"color" : [ 0.856318, 0.856318, 0.856318, 1.0 ],
									"fontname" : "Arial",
									"fontsize" : 12.0,
									"id" : "obj-25",
									"maxclass" : "newobj",
									"numinlets" : 1,
									"numoutlets" : 1,
									"outlettype" : [ "" ],
									"patcher" : 									{
										"fileversion" : 1,
										"appversion" : 										{
											"major" : 8,
											"minor" : 5,
											"revision" : 4,
											"architecture" : "x64",
											"modernui" : 1
										}
,
										"classnamespace" : "box",
										"rect" : [ 389.0, 448.0, 234.0, 301.0 ],
										"bglocked" : 0,
										"openinpresentation" : 0,
										"default_fontsize" : 12.0,
										"default_fontface" : 0,
										"default_fontname" : "Arial",
										"gridonopen" : 1,
										"gridsize" : [ 15.0, 15.0 ],
										"gridsnaponopen" : 1,
										"objectsnaponopen" : 1,
										"statusbarvisible" : 2,
										"toolbarvisible" : 1,
										"lefttoolbarpinned" : 0,
										"toptoolbarpinned" : 0,
										"righttoolbarpinned" : 0,
										"bottomtoolbarpinned" : 0,
										"toolbars_unpinned_last_save" : 0,
										"tallnewobj" : 0,
										"boxanimatetime" : 200,
										"enablehscroll" : 1,
										"enablevscroll" : 1,
										"devicewidth" : 0.0,
										"description" : "",
										"digest" : "",
										"tags" : "",
										"style" : "",
										"subpatcher_template" : "",
										"assistshowspatchername" : 0,
										"boxes" : [ 											{
												"box" : 												{
													"color" : [ 1.0, 1.0, 1.0, 1.0 ],
													"fontname" : "Arial",
													"fontsize" : 12.0,
													"id" : "obj-2",
													"maxclass" : "newobj",
													"numinlets" : 3,
													"numoutlets" : 1,
													"outlettype" : [ "" ],
													"patching_rect" : [ 16.0, 179.0, 69.0, 22.0 ],
													"text" : "clip 0. 0.99"
												}

											}
, 											{
												"box" : 												{
													"comment" : "",
													"id" : "obj-1",
													"index" : 1,
													"maxclass" : "outlet",
													"numinlets" : 1,
													"numoutlets" : 0,
													"patching_rect" : [ 16.0, 251.0, 25.0, 25.0 ]
												}

											}
, 											{
												"box" : 												{
													"color" : [ 1.0, 1.0, 1.0, 1.0 ],
													"fontname" : "Arial",
													"fontsize" : 12.0,
													"id" : "obj-21",
													"maxclass" : "newobj",
													"numinlets" : 2,
													"numoutlets" : 1,
													"outlettype" : [ "" ],
													"patching_rect" : [ 16.0, 219.0, 88.0, 22.0 ],
													"text" : "pack f f"
												}

											}
, 											{
												"box" : 												{
													"color" : [ 1.0, 1.0, 1.0, 1.0 ],
													"fontname" : "Arial",
													"fontsize" : 12.0,
													"id" : "obj-20",
													"maxclass" : "newobj",
													"numinlets" : 2,
													"numoutlets" : 1,
													"outlettype" : [ "float" ],
													"patching_rect" : [ 85.0, 165.0, 60.0, 22.0 ],
													"text" : "+ 3.1416"
												}

											}
, 											{
												"box" : 												{
													"color" : [ 1.0, 1.0, 1.0, 1.0 ],
													"fontname" : "Arial",
													"fontsize" : 12.0,
													"id" : "obj-19",
													"maxclass" : "newobj",
													"numinlets" : 1,
													"numoutlets" : 1,
													"outlettype" : [ "" ],
													"patching_rect" : [ 85.0, 192.0, 125.0, 22.0 ],
													"text" : "expr $f1/3.1416*180"
												}

											}
, 											{
												"box" : 												{
													"color" : [ 1.0, 1.0, 1.0, 1.0 ],
													"fontname" : "Arial",
													"fontsize" : 12.0,
													"id" : "obj-17",
													"maxclass" : "newobj",
													"numinlets" : 2,
													"numoutlets" : 1,
													"outlettype" : [ "float" ],
													"patching_rect" : [ 85.0, 111.0, 43.0, 22.0 ],
													"text" : "* 2."
												}

											}
, 											{
												"box" : 												{
													"color" : [ 1.0, 1.0, 1.0, 1.0 ],
													"fontname" : "Arial",
													"fontsize" : 12.0,
													"id" : "obj-16",
													"maxclass" : "newobj",
													"numinlets" : 2,
													"numoutlets" : 1,
													"outlettype" : [ "float" ],
													"patching_rect" : [ 16.0, 111.0, 43.0, 22.0 ],
													"text" : "* 2."
												}

											}
, 											{
												"box" : 												{
													"color" : [ 1.0, 1.0, 1.0, 1.0 ],
													"fontname" : "Arial",
													"fontsize" : 12.0,
													"id" : "obj-11",
													"maxclass" : "newobj",
													"numinlets" : 2,
													"numoutlets" : 2,
													"outlettype" : [ "float", "float" ],
													"patching_rect" : [ 16.0, 138.0, 88.0, 22.0 ],
													"text" : "cartopol"
												}

											}
, 											{
												"box" : 												{
													"color" : [ 1.0, 1.0, 1.0, 1.0 ],
													"fontname" : "Arial",
													"fontsize" : 12.0,
													"id" : "obj-10",
													"maxclass" : "newobj",
													"numinlets" : 2,
													"numoutlets" : 1,
													"outlettype" : [ "float" ],
													"patching_rect" : [ 85.0, 82.0, 43.0, 22.0 ],
													"text" : "- 0.5"
												}

											}
, 											{
												"box" : 												{
													"color" : [ 1.0, 1.0, 1.0, 1.0 ],
													"fontname" : "Arial",
													"fontsize" : 12.0,
													"id" : "obj-9",
													"maxclass" : "newobj",
													"numinlets" : 2,
													"numoutlets" : 1,
													"outlettype" : [ "float" ],
													"patching_rect" : [ 16.0, 82.0, 43.0, 22.0 ],
													"text" : "- 0.5"
												}

											}
, 											{
												"box" : 												{
													"color" : [ 1.0, 1.0, 1.0, 1.0 ],
													"fontname" : "Arial",
													"fontsize" : 12.0,
													"id" : "obj-4",
													"maxclass" : "newobj",
													"numinlets" : 1,
													"numoutlets" : 2,
													"outlettype" : [ "float", "float" ],
													"patching_rect" : [ 16.0, 53.0, 88.0, 22.0 ],
													"text" : "unpack f f"
												}

											}
, 											{
												"box" : 												{
													"comment" : "",
													"id" : "obj-22",
													"index" : 1,
													"maxclass" : "inlet",
													"numinlets" : 0,
													"numoutlets" : 1,
													"outlettype" : [ "" ],
													"patching_rect" : [ 16.0, 16.0, 25.0, 25.0 ]
												}

											}
 ],
										"lines" : [ 											{
												"patchline" : 												{
													"destination" : [ "obj-17", 0 ],
													"source" : [ "obj-10", 0 ]
												}

											}
, 											{
												"patchline" : 												{
													"destination" : [ "obj-2", 0 ],
													"source" : [ "obj-11", 0 ]
												}

											}
, 											{
												"patchline" : 												{
													"destination" : [ "obj-20", 0 ],
													"source" : [ "obj-11", 1 ]
												}

											}
, 											{
												"patchline" : 												{
													"destination" : [ "obj-11", 0 ],
													"source" : [ "obj-16", 0 ]
												}

											}
, 											{
												"patchline" : 												{
													"destination" : [ "obj-11", 1 ],
													"source" : [ "obj-17", 0 ]
												}

											}
, 											{
												"patchline" : 												{
													"destination" : [ "obj-21", 1 ],
													"source" : [ "obj-19", 0 ]
												}

											}
, 											{
												"patchline" : 												{
													"destination" : [ "obj-21", 0 ],
													"source" : [ "obj-2", 0 ]
												}

											}
, 											{
												"patchline" : 												{
													"destination" : [ "obj-19", 0 ],
													"source" : [ "obj-20", 0 ]
												}

											}
, 											{
												"patchline" : 												{
													"destination" : [ "obj-1", 0 ],
													"source" : [ "obj-21", 0 ]
												}

											}
, 											{
												"patchline" : 												{
													"destination" : [ "obj-4", 0 ],
													"source" : [ "obj-22", 0 ]
												}

											}
, 											{
												"patchline" : 												{
													"destination" : [ "obj-10", 0 ],
													"source" : [ "obj-4", 1 ]
												}

											}
, 											{
												"patchline" : 												{
													"destination" : [ "obj-9", 0 ],
													"source" : [ "obj-4", 0 ]
												}

											}
, 											{
												"patchline" : 												{
													"destination" : [ "obj-16", 0 ],
													"source" : [ "obj-9", 0 ]
												}

											}
 ]
									}
,
									"patching_rect" : [ 209.485157489776611, 481.064368546009064, 88.0, 22.0 ],
									"saved_object_attributes" : 									{
										"description" : "",
										"digest" : "",
										"globalpatchername" : "",
										"tags" : ""
									}
,
									"text" : "p cartopoldeg"
								}

							}
, 							{
								"box" : 								{
									"color" : [ 0.856318, 0.856318, 0.856318, 1.0 ],
									"fontname" : "Arial",
									"fontsize" : 12.0,
									"id" : "obj-23",
									"maxclass" : "newobj",
									"numinlets" : 1,
									"numoutlets" : 1,
									"outlettype" : [ "" ],
									"patcher" : 									{
										"fileversion" : 1,
										"appversion" : 										{
											"major" : 8,
											"minor" : 5,
											"revision" : 4,
											"architecture" : "x64",
											"modernui" : 1
										}
,
										"classnamespace" : "box",
										"rect" : [ 405.0, 354.0, 540.0, 350.0 ],
										"bglocked" : 0,
										"openinpresentation" : 0,
										"default_fontsize" : 12.0,
										"default_fontface" : 0,
										"default_fontname" : "Arial",
										"gridonopen" : 1,
										"gridsize" : [ 15.0, 15.0 ],
										"gridsnaponopen" : 1,
										"objectsnaponopen" : 1,
										"statusbarvisible" : 2,
										"toolbarvisible" : 1,
										"lefttoolbarpinned" : 0,
										"toptoolbarpinned" : 0,
										"righttoolbarpinned" : 0,
										"bottomtoolbarpinned" : 0,
										"toolbars_unpinned_last_save" : 0,
										"tallnewobj" : 0,
										"boxanimatetime" : 200,
										"enablehscroll" : 1,
										"enablevscroll" : 1,
										"devicewidth" : 0.0,
										"description" : "",
										"digest" : "",
										"tags" : "",
										"style" : "",
										"subpatcher_template" : "",
										"assistshowspatchername" : 0,
										"boxes" : [ 											{
												"box" : 												{
													"color" : [ 0.861243, 0.861243, 0.861243, 1.0 ],
													"fontname" : "Arial",
													"fontsize" : 10.0,
													"id" : "obj-20",
													"maxclass" : "newobj",
													"numinlets" : 2,
													"numoutlets" : 1,
													"outlettype" : [ "float" ],
													"patching_rect" : [ 85.0, 164.0, 52.0, 20.0 ],
													"text" : "+ 3.1416"
												}

											}
, 											{
												"box" : 												{
													"color" : [ 0.861243, 0.861243, 0.861243, 1.0 ],
													"fontname" : "Arial",
													"fontsize" : 10.0,
													"id" : "obj-2",
													"maxclass" : "newobj",
													"numinlets" : 3,
													"numoutlets" : 1,
													"outlettype" : [ "" ],
													"patching_rect" : [ 16.0, 179.0, 59.0, 20.0 ],
													"text" : "clip 0. 0.99"
												}

											}
, 											{
												"box" : 												{
													"comment" : "r, theta",
													"id" : "obj-1",
													"index" : 1,
													"maxclass" : "outlet",
													"numinlets" : 1,
													"numoutlets" : 0,
													"patching_rect" : [ 16.0, 250.0, 25.0, 25.0 ]
												}

											}
, 											{
												"box" : 												{
													"color" : [ 0.861243, 0.861243, 0.861243, 1.0 ],
													"fontname" : "Arial",
													"fontsize" : 10.0,
													"id" : "obj-21",
													"maxclass" : "newobj",
													"numinlets" : 2,
													"numoutlets" : 1,
													"outlettype" : [ "" ],
													"patching_rect" : [ 16.0, 225.0, 88.0, 20.0 ],
													"text" : "pack f f"
												}

											}
, 											{
												"box" : 												{
													"color" : [ 0.861243, 0.861243, 0.861243, 1.0 ],
													"fontname" : "Arial",
													"fontsize" : 10.0,
													"id" : "obj-19",
													"maxclass" : "newobj",
													"numinlets" : 1,
													"numoutlets" : 1,
													"outlettype" : [ "" ],
													"patching_rect" : [ 85.0, 193.0, 106.0, 20.0 ],
													"text" : "expr $f1/3.1416*180"
												}

											}
, 											{
												"box" : 												{
													"color" : [ 0.861243, 0.861243, 0.861243, 1.0 ],
													"fontname" : "Arial",
													"fontsize" : 10.0,
													"id" : "obj-17",
													"maxclass" : "newobj",
													"numinlets" : 2,
													"numoutlets" : 1,
													"outlettype" : [ "float" ],
													"patching_rect" : [ 85.0, 111.0, 29.0, 20.0 ],
													"text" : "* -2."
												}

											}
, 											{
												"box" : 												{
													"color" : [ 0.861243, 0.861243, 0.861243, 1.0 ],
													"fontname" : "Arial",
													"fontsize" : 10.0,
													"id" : "obj-16",
													"maxclass" : "newobj",
													"numinlets" : 2,
													"numoutlets" : 1,
													"outlettype" : [ "float" ],
													"patching_rect" : [ 16.0, 111.0, 39.0, 20.0 ],
													"text" : "* 2."
												}

											}
, 											{
												"box" : 												{
													"color" : [ 0.861243, 0.861243, 0.861243, 1.0 ],
													"fontname" : "Arial",
													"fontsize" : 10.0,
													"id" : "obj-11",
													"maxclass" : "newobj",
													"numinlets" : 2,
													"numoutlets" : 2,
													"outlettype" : [ "float", "float" ],
													"patching_rect" : [ 16.0, 138.0, 88.0, 20.0 ],
													"text" : "cartopol"
												}

											}
, 											{
												"box" : 												{
													"color" : [ 0.861243, 0.861243, 0.861243, 1.0 ],
													"fontname" : "Arial",
													"fontsize" : 10.0,
													"id" : "obj-10",
													"maxclass" : "newobj",
													"numinlets" : 2,
													"numoutlets" : 1,
													"outlettype" : [ "float" ],
													"patching_rect" : [ 85.0, 82.0, 38.0, 20.0 ],
													"text" : "- 0.5"
												}

											}
, 											{
												"box" : 												{
													"color" : [ 0.861243, 0.861243, 0.861243, 1.0 ],
													"fontname" : "Arial",
													"fontsize" : 10.0,
													"id" : "obj-9",
													"maxclass" : "newobj",
													"numinlets" : 2,
													"numoutlets" : 1,
													"outlettype" : [ "float" ],
													"patching_rect" : [ 16.0, 82.0, 38.0, 20.0 ],
													"text" : "- 0.5"
												}

											}
, 											{
												"box" : 												{
													"color" : [ 0.861243, 0.861243, 0.861243, 1.0 ],
													"fontname" : "Arial",
													"fontsize" : 10.0,
													"id" : "obj-4",
													"maxclass" : "newobj",
													"numinlets" : 1,
													"numoutlets" : 2,
													"outlettype" : [ "float", "float" ],
													"patching_rect" : [ 16.0, 53.0, 88.0, 20.0 ],
													"text" : "unpack f f"
												}

											}
, 											{
												"box" : 												{
													"comment" : "",
													"id" : "obj-22",
													"index" : 1,
													"maxclass" : "inlet",
													"numinlets" : 0,
													"numoutlets" : 1,
													"outlettype" : [ "" ],
													"patching_rect" : [ 16.0, 16.0, 25.0, 25.0 ]
												}

											}
 ],
										"lines" : [ 											{
												"patchline" : 												{
													"destination" : [ "obj-17", 0 ],
													"source" : [ "obj-10", 0 ]
												}

											}
, 											{
												"patchline" : 												{
													"destination" : [ "obj-2", 0 ],
													"source" : [ "obj-11", 0 ]
												}

											}
, 											{
												"patchline" : 												{
													"destination" : [ "obj-20", 0 ],
													"source" : [ "obj-11", 1 ]
												}

											}
, 											{
												"patchline" : 												{
													"destination" : [ "obj-11", 0 ],
													"source" : [ "obj-16", 0 ]
												}

											}
, 											{
												"patchline" : 												{
													"destination" : [ "obj-11", 1 ],
													"source" : [ "obj-17", 0 ]
												}

											}
, 											{
												"patchline" : 												{
													"destination" : [ "obj-21", 1 ],
													"source" : [ "obj-19", 0 ]
												}

											}
, 											{
												"patchline" : 												{
													"destination" : [ "obj-21", 0 ],
													"source" : [ "obj-2", 0 ]
												}

											}
, 											{
												"patchline" : 												{
													"destination" : [ "obj-19", 0 ],
													"source" : [ "obj-20", 0 ]
												}

											}
, 											{
												"patchline" : 												{
													"destination" : [ "obj-1", 0 ],
													"source" : [ "obj-21", 0 ]
												}

											}
, 											{
												"patchline" : 												{
													"destination" : [ "obj-4", 0 ],
													"source" : [ "obj-22", 0 ]
												}

											}
, 											{
												"patchline" : 												{
													"destination" : [ "obj-10", 0 ],
													"source" : [ "obj-4", 1 ]
												}

											}
, 											{
												"patchline" : 												{
													"destination" : [ "obj-9", 0 ],
													"source" : [ "obj-4", 0 ]
												}

											}
, 											{
												"patchline" : 												{
													"destination" : [ "obj-16", 0 ],
													"source" : [ "obj-9", 0 ]
												}

											}
 ]
									}
,
									"patching_rect" : [ 14.5, 481.064368546009064, 88.0, 22.0 ],
									"saved_object_attributes" : 									{
										"description" : "",
										"digest" : "",
										"globalpatchername" : "",
										"tags" : ""
									}
,
									"text" : "p cartopoldeg"
								}

							}
, 							{
								"box" : 								{
									"color" : [ 0.856318, 0.856318, 0.856318, 1.0 ],
									"fontname" : "Arial",
									"fontsize" : 12.0,
									"id" : "obj-3",
									"maxclass" : "newobj",
									"numinlets" : 5,
									"numoutlets" : 5,
									"outlettype" : [ "", "", "", "", "" ],
									"patching_rect" : [ 14.5, 87.0, 76.0, 22.0 ],
									"text" : "route 1 2 3 4"
								}

							}
, 							{
								"box" : 								{
									"color" : [ 0.879331, 0.879331, 0.879331, 1.0 ],
									"fontname" : "Arial",
									"fontsize" : 12.0,
									"id" : "obj-2",
									"maxclass" : "newobj",
									"numinlets" : 5,
									"numoutlets" : 5,
									"outlettype" : [ "", "", "", "", "" ],
									"patching_rect" : [ 15.0, 50.0, 518.761181592941284, 22.0 ],
									"text" : "route node strikes snares mics"
								}

							}
, 							{
								"box" : 								{
									"comment" : "",
									"id" : "obj-1",
									"index" : 1,
									"maxclass" : "inlet",
									"numinlets" : 0,
									"numoutlets" : 1,
									"outlettype" : [ "" ],
									"patching_rect" : [ 15.0, 14.0, 25.0, 25.0 ]
								}

							}
 ],
						"lines" : [ 							{
								"patchline" : 								{
									"destination" : [ "obj-2", 0 ],
									"midpoints" : [ 24.5, 39.0, 24.5, 39.0 ],
									"source" : [ "obj-1", 0 ]
								}

							}
, 							{
								"patchline" : 								{
									"destination" : [ "obj-3", 0 ],
									"midpoints" : [ 24.5, 72.0, 24.0, 72.0 ],
									"source" : [ "obj-2", 0 ]
								}

							}
, 							{
								"patchline" : 								{
									"destination" : [ "obj-44", 0 ],
									"source" : [ "obj-23", 0 ]
								}

							}
, 							{
								"patchline" : 								{
									"destination" : [ "obj-47", 0 ],
									"source" : [ "obj-25", 0 ]
								}

							}
, 							{
								"patchline" : 								{
									"destination" : [ "obj-23", 0 ],
									"source" : [ "obj-3", 0 ]
								}

							}
, 							{
								"patchline" : 								{
									"destination" : [ "obj-25", 0 ],
									"midpoints" : [ 38.25, 468.0, 218.985157489776611, 468.0 ],
									"source" : [ "obj-3", 1 ]
								}

							}
, 							{
								"patchline" : 								{
									"destination" : [ "obj-27", 0 ],
									"source" : [ "obj-44", 0 ]
								}

							}
, 							{
								"patchline" : 								{
									"destination" : [ "obj-27", 0 ],
									"midpoints" : [ 218.985157489776611, 615.0, 24.0, 615.0 ],
									"source" : [ "obj-47", 0 ]
								}

							}
 ]
					}
,
					"patching_rect" : [ 744.625766515731812, 929.390415072441101, 99.0, 27.0 ],
					"saved_object_attributes" : 					{
						"description" : "",
						"digest" : "",
						"globalpatchername" : "",
						"tags" : ""
					}
,
					"text" : "p positions"
				}

			}
, 			{
				"box" : 				{
					"fontface" : 2,
					"fontname" : "Arial",
					"fontsize" : 16.0,
					"id" : "obj-112",
					"maxclass" : "comment",
					"numinlets" : 1,
					"numoutlets" : 0,
					"patching_rect" : [ 615.639076709747314, 198.630790114402771, 81.0, 25.0 ],
					"presentation" : 1,
					"presentation_rect" : [ 94.0, 49.842105627059937, 81.0, 25.0 ],
					"text" : "head"
				}

			}
, 			{
				"box" : 				{
					"id" : "obj-90",
					"maxclass" : "newobj",
					"numinlets" : 1,
					"numoutlets" : 1,
					"outlettype" : [ "signal" ],
					"patching_rect" : [ 615.639076709747314, 1381.890954494476318, 34.0, 23.0 ],
					"text" : "limi~"
				}

			}
, 			{
				"box" : 				{
					"color" : [ 0.912555, 0.912555, 0.912555, 1.0 ],
					"fontname" : "Arial",
					"fontsize" : 10.0,
					"id" : "obj-89",
					"maxclass" : "newobj",
					"numinlets" : 0,
					"numoutlets" : 1,
					"outlettype" : [ "" ],
					"patching_rect" : [ 732.856535792350769, 1067.265212178230286, 80.0, 20.0 ],
					"text" : "receive #0-bd"
				}

			}
, 			{
				"box" : 				{
					"color" : [ 0.912555, 0.912555, 0.912555, 1.0 ],
					"fontname" : "Arial",
					"fontsize" : 10.0,
					"id" : "obj-109",
					"maxclass" : "newobj",
					"numinlets" : 1,
					"numoutlets" : 0,
					"patching_rect" : [ 615.639076709747314, 396.551540911197662, 70.0, 20.0 ],
					"text" : "send #0-bd"
				}

			}
, 			{
				"box" : 				{
					"fontsize" : 10.5,
					"id" : "obj-28",
					"maxclass" : "live.dial",
					"numinlets" : 1,
					"numoutlets" : 2,
					"outlettype" : [ "", "float" ],
					"parameter_enable" : 1,
					"patching_rect" : [ 732.639076709747314, 225.630790114402771, 56.0, 51.0 ],
					"presentation" : 1,
					"presentation_rect" : [ 194.5, 76.842105627059937, 52.0, 51.0 ],
					"saved_attribute_attributes" : 					{
						"textcolor" : 						{
							"expression" : ""
						}
,
						"valueof" : 						{
							"parameter_exponent" : 2.0,
							"parameter_initial" : [ 1 ],
							"parameter_initial_enable" : 1,
							"parameter_linknames" : 1,
							"parameter_longname" : "Constloss",
							"parameter_mmax" : 10.0,
							"parameter_modmode" : 2,
							"parameter_shortname" : "const. loss",
							"parameter_type" : 0,
							"parameter_unitstyle" : 1
						}

					}
,
					"textcolor" : [ 1.0, 1.0, 1.0, 1.0 ],
					"varname" : "Constloss"
				}

			}
, 			{
				"box" : 				{
					"fontsize" : 10.5,
					"id" : "obj-27",
					"maxclass" : "live.dial",
					"numinlets" : 1,
					"numoutlets" : 2,
					"outlettype" : [ "", "float" ],
					"parameter_enable" : 1,
					"patching_rect" : [ 676.639076709747314, 225.630790114402771, 47.0, 51.0 ],
					"presentation" : 1,
					"presentation_rect" : [ 140.5, 76.842105627059937, 52.0, 51.0 ],
					"saved_attribute_attributes" : 					{
						"textcolor" : 						{
							"expression" : ""
						}
,
						"valueof" : 						{
							"parameter_exponent" : 2.0,
							"parameter_initial" : [ 5 ],
							"parameter_initial_enable" : 1,
							"parameter_linknames" : 1,
							"parameter_longname" : "Freqloss",
							"parameter_mmax" : 10.0,
							"parameter_modmode" : 2,
							"parameter_shortname" : "freq. loss",
							"parameter_type" : 0,
							"parameter_unitstyle" : 1
						}

					}
,
					"textcolor" : [ 1.0, 1.0, 1.0, 1.0 ],
					"varname" : "Freqloss"
				}

			}
, 			{
				"box" : 				{
					"fontsize" : 10.5,
					"id" : "obj-22",
					"maxclass" : "live.dial",
					"numinlets" : 1,
					"numoutlets" : 2,
					"outlettype" : [ "", "float" ],
					"parameter_enable" : 1,
					"patching_rect" : [ 615.639076709747314, 225.630790114402771, 45.0, 51.0 ],
					"presentation" : 1,
					"presentation_rect" : [ 86.5, 76.842105627059937, 50.0, 51.0 ],
					"saved_attribute_attributes" : 					{
						"textcolor" : 						{
							"expression" : ""
						}
,
						"valueof" : 						{
							"parameter_initial" : [ 80 ],
							"parameter_initial_enable" : 1,
							"parameter_longname" : "Modes[3]",
							"parameter_mmax" : 160.0,
							"parameter_modmode" : 2,
							"parameter_shortname" : "modes",
							"parameter_steps" : 161,
							"parameter_type" : 0,
							"parameter_unitstyle" : 0
						}

					}
,
					"textcolor" : [ 1.0, 1.0, 1.0, 1.0 ],
					"varname" : "Modes"
				}

			}
, 			{
				"box" : 				{
					"id" : "obj-86",
					"lastchannelcount" : 0,
					"maxclass" : "live.gain~",
					"numinlets" : 2,
					"numoutlets" : 5,
					"outlettype" : [ "signal", "signal", "", "float", "list" ],
					"parameter_enable" : 1,
					"patching_rect" : [ 615.639076709747314, 1212.71551251411438, 69.0, 91.0 ],
					"presentation" : 1,
					"presentation_rect" : [ 232.461541831493378, 76.842105627059937, 69.0, 104.0 ],
					"saved_attribute_attributes" : 					{
						"textcolor" : 						{
							"expression" : ""
						}
,
						"valueof" : 						{
							"parameter_initial" : [ -6 ],
							"parameter_initial_enable" : 1,
							"parameter_longname" : "live.gain~[11]",
							"parameter_mmax" : 6.0,
							"parameter_mmin" : -70.0,
							"parameter_shortname" : "head",
							"parameter_type" : 0,
							"parameter_unitstyle" : 4
						}

					}
,
					"textcolor" : [ 1.0, 1.0, 1.0, 1.0 ],
					"varname" : "live.gain~"
				}

			}
, 			{
				"box" : 				{
					"id" : "obj-82",
					"maxclass" : "newobj",
					"numinlets" : 2,
					"numoutlets" : 1,
					"outlettype" : [ "signal" ],
					"patching_rect" : [ 615.639076709747314, 1161.222127258777618, 31.0, 23.0 ],
					"text" : "*~ 1"
				}

			}
, 			{
				"box" : 				{
					"id" : "obj-81",
					"maxclass" : "newobj",
					"numinlets" : 2,
					"numoutlets" : 2,
					"outlettype" : [ "signal", "" ],
					"patching_rect" : [ 615.639076709747314, 1121.572656393051147, 79.0, 23.0 ],
					"saved_object_attributes" : 					{
						"precision" : ""
					}
,
					"text" : "modalys~ 2 1"
				}

			}
, 			{
				"box" : 				{
					"id" : "obj-80",
					"maxclass" : "button",
					"numinlets" : 1,
					"numoutlets" : 1,
					"outlettype" : [ "bang" ],
					"parameter_enable" : 0,
					"patching_rect" : [ 615.639076709747314, 451.964117407798767, 24.0, 24.0 ],
					"presentation" : 1,
					"presentation_rect" : [ 68.0, 49.842105627059937, 24.0, 24.0 ]
				}

			}
, 			{
				"box" : 				{
					"color" : [ 0.964705882352941, 0.407843137254902, 0.407843137254902, 1.0 ],
					"id" : "obj-78",
					"maxclass" : "newobj",
					"numinlets" : 1,
					"numoutlets" : 1,
					"outlettype" : [ "" ],
					"patcher" : 					{
						"fileversion" : 1,
						"appversion" : 						{
							"major" : 8,
							"minor" : 5,
							"revision" : 4,
							"architecture" : "x64",
							"modernui" : 1
						}
,
						"classnamespace" : "box",
						"rect" : [ 42.0, 85.0, 971.0, 913.0 ],
						"bglocked" : 0,
						"openinpresentation" : 0,
						"default_fontsize" : 12.0,
						"default_fontface" : 0,
						"default_fontname" : "Ableton Sans",
						"gridonopen" : 1,
						"gridsize" : [ 15.0, 15.0 ],
						"gridsnaponopen" : 1,
						"objectsnaponopen" : 1,
						"statusbarvisible" : 2,
						"toolbarvisible" : 1,
						"lefttoolbarpinned" : 0,
						"toptoolbarpinned" : 0,
						"righttoolbarpinned" : 0,
						"bottomtoolbarpinned" : 0,
						"toolbars_unpinned_last_save" : 0,
						"tallnewobj" : 0,
						"boxanimatetime" : 200,
						"enablehscroll" : 1,
						"enablevscroll" : 1,
						"devicewidth" : 0.0,
						"description" : "",
						"digest" : "",
						"tags" : "",
						"style" : "blacko",
						"subpatcher_template" : "Blacko",
						"assistshowspatchername" : 0,
						"boxes" : [ 							{
								"box" : 								{
									"comment" : "",
									"id" : "obj-19",
									"index" : 1,
									"maxclass" : "inlet",
									"numinlets" : 0,
									"numoutlets" : 1,
									"outlettype" : [ "bang" ],
									"patching_rect" : [ 141.670732259750366, 39.487805604934692, 25.0, 25.0 ]
								}

							}
, 							{
								"box" : 								{
									"color" : [ 0.156863, 0.8, 0.54902, 1.0 ],
									"fontname" : "Arial",
									"fontsize" : 12.0,
									"id" : "obj-9",
									"maxclass" : "newobj",
									"numinlets" : 1,
									"numoutlets" : 1,
									"outlettype" : [ "" ],
									"patching_rect" : [ 534.170732259750366, 234.487805604934692, 80.0, 22.0 ],
									"saved_object_attributes" : 									{
										"name" : "AdhereConnection",
										"weight" : 1.0
									}
,
									"text" : "mlys.adhere"
								}

							}
, 							{
								"box" : 								{
									"color" : [ 0.6, 0.6, 1.0, 1.0 ],
									"fontname" : "Arial",
									"fontsize" : 12.0,
									"id" : "obj-8",
									"maxclass" : "newobj",
									"numinlets" : 1,
									"numoutlets" : 1,
									"outlettype" : [ "" ],
									"patching_rect" : [ 534.170732259750366, 198.987805604934692, 177.0, 22.0 ],
									"saved_object_attributes" : 									{
										"access-in-initial-position" : [ 1.0 ],
										"access-out-initial-position" : [ 1.0 ],
										"ampl" : [ 1.0 ],
										"freq" : [ 110.0 ],
										"loss" : [ 1.0 ],
										"modes" : 1,
										"name" : "damp"
									}
,
									"text" : "mlys.single-point @name damp"
								}

							}
, 							{
								"box" : 								{
									"color" : [ 1.0, 0.611765, 0.611765, 1.0 ],
									"fontname" : "Arial",
									"fontsize" : 12.0,
									"id" : "obj-12",
									"maxclass" : "newobj",
									"numinlets" : 1,
									"numoutlets" : 1,
									"outlettype" : [ "" ],
									"patching_rect" : [ 53.170732259750366, 96.487805604934692, 244.0, 22.0 ],
									"saved_object_attributes" : 									{
										"channel" : 1,
										"gain" : 1.0,
										"name" : "input1"
									}
,
									"text" : "mlys.point-input @channel 1 @name input1"
								}

							}
, 							{
								"box" : 								{
									"color" : [ 1.0, 0.611765, 0.611765, 1.0 ],
									"fontname" : "Arial",
									"fontsize" : 12.0,
									"id" : "obj-6",
									"maxclass" : "newobj",
									"numinlets" : 1,
									"numoutlets" : 1,
									"outlettype" : [ "" ],
									"patching_rect" : [ 53.170732259750366, 128.487805604934692, 157.0, 22.0 ],
									"saved_object_attributes" : 									{
										"name" : "signal1",
										"target-attribute" : "none"
									}
,
									"text" : "mlys.signal @name signal1"
								}

							}
, 							{
								"box" : 								{
									"fontname" : "Arial",
									"fontsize" : 12.0,
									"id" : "obj-5",
									"maxclass" : "newobj",
									"numinlets" : 1,
									"numoutlets" : 1,
									"outlettype" : [ "bang" ],
									"patching_rect" : [ 53.170732259750366, 66.487805604934692, 67.0, 22.0 ],
									"text" : "loadbang"
								}

							}
, 							{
								"box" : 								{
									"color" : [ 1.0, 0.611765, 0.611765, 1.0 ],
									"fontname" : "Arial",
									"fontsize" : 12.0,
									"id" : "obj-10",
									"maxclass" : "newobj",
									"numinlets" : 1,
									"numoutlets" : 1,
									"outlettype" : [ "" ],
									"patching_rect" : [ 53.170732259750366, 312.487805604934692, 243.0, 22.0 ],
									"saved_object_attributes" : 									{
										"channel" : 1,
										"gain" : 1.0,
										"name" : "out1"
									}
,
									"text" : "mlys.point-output @name out1 @channel 1"
								}

							}
, 							{
								"box" : 								{
									"fontname" : "Arial",
									"fontsize" : 12.0,
									"id" : "obj-7",
									"maxclass" : "newobj",
									"numinlets" : 1,
									"numoutlets" : 1,
									"outlettype" : [ "" ],
									"patching_rect" : [ 53.170732259750366, 372.487805604934692, 75.0, 22.0 ],
									"saved_object_attributes" : 									{
										"angle-mode" : "degree",
										"multi" : 0,
										"precision" : "double"
									}
,
									"text" : "mlys.script"
								}

							}
, 							{
								"box" : 								{
									"color" : [ 0.156863, 0.8, 0.54902, 1.0 ],
									"fontname" : "Arial",
									"fontsize" : 12.0,
									"id" : "obj-4",
									"maxclass" : "newobj",
									"numinlets" : 1,
									"numoutlets" : 1,
									"outlettype" : [ "" ],
									"patching_rect" : [ 53.170732259750366, 158.487805604934692, 175.0, 22.0 ],
									"saved_object_attributes" : 									{
										"name" : "position1",
										"position" : 0.0,
										"weight" : 1.0
									}
,
									"text" : "mlys.position @name position1"
								}

							}
, 							{
								"box" : 								{
									"color" : [ 0.156863, 0.8, 0.54902, 1.0 ],
									"fontname" : "Arial",
									"fontsize" : 12.0,
									"id" : "obj-3",
									"linecount" : 2,
									"maxclass" : "newobj",
									"numinlets" : 1,
									"numoutlets" : 1,
									"outlettype" : [ "" ],
									"patching_rect" : [ 53.170732259750366, 220.487805604934692, 252.0, 36.0 ],
									"saved_object_attributes" : 									{
										"F0" : [ 1.299999952316284, 9.0 ],
										"alpha" : 3.0,
										"epsilon" : 0.5,
										"initial-position-in" : 0.0,
										"initial-position-out" : -0.100000001490116,
										"name" : "felt1",
										"tau" : 0.000009999999747,
										"thickness" : 0.001000000047497,
										"weight" : 1.0
									}
,
									"text" : "mlys.felt @initial-position-in 0 @initial-position-out -0.1 @name felt1"
								}

							}
, 							{
								"box" : 								{
									"color" : [ 0.6, 0.6, 1.0, 1.0 ],
									"fontname" : "Arial",
									"fontsize" : 12.0,
									"id" : "obj-2",
									"maxclass" : "newobj",
									"numinlets" : 2,
									"numoutlets" : 1,
									"outlettype" : [ "" ],
									"patching_rect" : [ 53.170732259750366, 270.487805604934692, 500.0, 22.0 ],
									"saved_object_attributes" : 									{
										"access-in-initial-position-r" : [ 0.050000000745058, 0.150000005960464 ],
										"access-in-initial-position-theta" : [ 18.0, 54.0 ],
										"access-out-initial-position-r" : [ 0.100000001490116 ],
										"access-out-initial-position-theta" : [ 36.0 ],
										"const-loss" : 10.0,
										"density" : 7800.0,
										"freq-loss" : 5.0,
										"modes" : 24,
										"name" : "bd",
										"pitch" : 26.0,
										"pitch-parameter" : "radius",
										"poisson" : 0.300000011920929,
										"radius" : 0.5,
										"thickness" : 0.009999999776483,
										"young" : [ 1.0, 9.0 ]
									}
,
									"text" : "mlys.clamped-circ-plate 2 1 @modes 24 @pitch 26 @const-loss 10 @freq-loss 5 @name bd"
								}

							}
, 							{
								"box" : 								{
									"color" : [ 0.6, 0.6, 1.0, 1.0 ],
									"fontname" : "Arial",
									"fontsize" : 12.0,
									"id" : "obj-1",
									"maxclass" : "newobj",
									"numinlets" : 1,
									"numoutlets" : 1,
									"outlettype" : [ "" ],
									"patching_rect" : [ 53.170732259750366, 191.487805604934692, 179.0, 22.0 ],
									"saved_object_attributes" : 									{
										"access-in-initial-position" : [ 1.0 ],
										"access-out-initial-position" : [ 1.0 ],
										"ampl" : [ 1.0 ],
										"freq" : [ 110.0 ],
										"loss" : [ 1.0 ],
										"modes" : 1,
										"name" : "stick1"
									}
,
									"text" : "mlys.single-point @name stick1"
								}

							}
, 							{
								"box" : 								{
									"comment" : "",
									"id" : "obj-17",
									"index" : 1,
									"maxclass" : "outlet",
									"numinlets" : 1,
									"numoutlets" : 0,
									"patching_rect" : [ 53.170732259750366, 412.487805604934692, 25.0, 25.0 ]
								}

							}
 ],
						"lines" : [ 							{
								"patchline" : 								{
									"destination" : [ "obj-3", 0 ],
									"source" : [ "obj-1", 0 ]
								}

							}
, 							{
								"patchline" : 								{
									"destination" : [ "obj-7", 0 ],
									"source" : [ "obj-10", 0 ]
								}

							}
, 							{
								"patchline" : 								{
									"destination" : [ "obj-6", 0 ],
									"source" : [ "obj-12", 0 ]
								}

							}
, 							{
								"patchline" : 								{
									"destination" : [ "obj-12", 0 ],
									"midpoints" : [ 151.170732259750366, 90.487805604934692, 122.170732259750366, 90.487805604934692, 122.170732259750366, 90.487805604934692, 62.670732259750366, 90.487805604934692 ],
									"source" : [ "obj-19", 0 ]
								}

							}
, 							{
								"patchline" : 								{
									"destination" : [ "obj-10", 0 ],
									"source" : [ "obj-2", 0 ]
								}

							}
, 							{
								"patchline" : 								{
									"destination" : [ "obj-2", 0 ],
									"source" : [ "obj-3", 0 ]
								}

							}
, 							{
								"patchline" : 								{
									"destination" : [ "obj-1", 0 ],
									"source" : [ "obj-4", 0 ]
								}

							}
, 							{
								"patchline" : 								{
									"destination" : [ "obj-12", 0 ],
									"source" : [ "obj-5", 0 ]
								}

							}
, 							{
								"patchline" : 								{
									"destination" : [ "obj-4", 0 ],
									"source" : [ "obj-6", 0 ]
								}

							}
, 							{
								"patchline" : 								{
									"destination" : [ "obj-17", 0 ],
									"source" : [ "obj-7", 0 ]
								}

							}
, 							{
								"patchline" : 								{
									"destination" : [ "obj-9", 0 ],
									"source" : [ "obj-8", 0 ]
								}

							}
, 							{
								"patchline" : 								{
									"destination" : [ "obj-2", 1 ],
									"source" : [ "obj-9", 0 ]
								}

							}
 ],
						"styles" : [ 							{
								"name" : "blacko",
								"default" : 								{
									"accentcolor" : [ 0.184313725490196, 0.184313725490196, 0.184313725490196, 1.0 ],
									"bgcolor" : [ 0.184313725490196, 0.184313725490196, 0.184313725490196, 1.0 ],
									"editing_bgcolor" : [ 0.094117647058824, 0.058823529411765, 0.050980392156863, 1.0 ],
									"elementcolor" : [ 0.34902, 0.34902, 0.34902, 1.0 ],
									"fontname" : [ "Ableton Sans" ],
									"locked_bgcolor" : [ 0.07843137254902, 0.047058823529412, 0.043137254901961, 1.0 ],
									"stripecolor" : [ 0.243137, 0.243137, 0.243137, 1.0 ],
									"textcolor" : [ 1.0, 1.0, 1.0, 1.0 ],
									"textjustification" : [ 0 ]
								}
,
								"parentstyle" : "",
								"multi" : 0
							}
 ]
					}
,
					"patching_rect" : [ 615.639076709747314, 676.986397487388558, 99.0, 23.0 ],
					"saved_object_attributes" : 					{
						"description" : "",
						"digest" : "",
						"fontname" : "Ableton Sans",
						"globalpatchername" : "",
						"style" : "blacko",
						"tags" : ""
					}
,
					"text" : "p mlys-script_bd"
				}

			}
, 			{
				"box" : 				{
					"id" : "obj-44",
					"maxclass" : "button",
					"numinlets" : 1,
					"numoutlets" : 1,
					"outlettype" : [ "bang" ],
					"parameter_enable" : 0,
					"patching_rect" : [ 5170.127643823623657, 3470.553179025650024, 24.0, 24.0 ]
				}

			}
, 			{
				"box" : 				{
					"id" : "obj-115",
					"maxclass" : "panel",
					"numinlets" : 1,
					"numoutlets" : 0,
					"patching_rect" : [ 662.625766515731812, 478.964117407798767, 183.0, 184.0 ],
					"presentation" : 1,
					"presentation_rect" : [ 68.0, 206.719508647918701, 224.0, 225.22404371584696 ],
					"rounded" : 339
				}

			}
 ],
		"lines" : [ 			{
				"patchline" : 				{
					"color" : [ 0.701960784313725, 0.701960784313725, 0.701960784313725, 0.192156862745098 ],
					"destination" : [ "obj-8", 0 ],
					"midpoints" : [ 810.08495020866394, 218.714286088943481, 860.725060939788818, 218.714286088943481, 860.725060939788818, 155.714286088943481, 874.370663602210925, 155.714286088943481 ],
					"source" : [ "obj-11", 1 ]
				}

			}
, 			{
				"patchline" : 				{
					"destination" : [ "obj-330", 3 ],
					"source" : [ "obj-12", 0 ]
				}

			}
, 			{
				"patchline" : 				{
					"destination" : [ "obj-81", 0 ],
					"midpoints" : [ 875.149342179298401, 1105.0, 625.139076709747314, 1105.0 ],
					"source" : [ "obj-140", 0 ]
				}

			}
, 			{
				"patchline" : 				{
					"destination" : [ "obj-169", 0 ],
					"source" : [ "obj-167", 0 ]
				}

			}
, 			{
				"patchline" : 				{
					"destination" : [ "obj-81", 0 ],
					"midpoints" : [ 93.211271226406097, 1107.0, 625.139076709747314, 1107.0 ],
					"source" : [ "obj-169", 0 ]
				}

			}
, 			{
				"patchline" : 				{
					"destination" : [ "obj-41", 0 ],
					"source" : [ "obj-2", 1 ]
				}

			}
, 			{
				"patchline" : 				{
					"destination" : [ "obj-202", 0 ],
					"source" : [ "obj-201", 0 ]
				}

			}
, 			{
				"patchline" : 				{
					"destination" : [ "obj-216", 0 ],
					"source" : [ "obj-202", 0 ]
				}

			}
, 			{
				"patchline" : 				{
					"destination" : [ "obj-193", 0 ],
					"source" : [ "obj-215", 0 ]
				}

			}
, 			{
				"patchline" : 				{
					"destination" : [ "obj-215", 0 ],
					"source" : [ "obj-216", 0 ]
				}

			}
, 			{
				"patchline" : 				{
					"destination" : [ "obj-330", 0 ],
					"source" : [ "obj-22", 0 ]
				}

			}
, 			{
				"patchline" : 				{
					"destination" : [ "obj-263", 1 ],
					"source" : [ "obj-242", 0 ]
				}

			}
, 			{
				"patchline" : 				{
					"destination" : [ "obj-4", 0 ],
					"source" : [ "obj-25", 0 ]
				}

			}
, 			{
				"patchline" : 				{
					"destination" : [ "obj-263", 0 ],
					"source" : [ "obj-260", 0 ]
				}

			}
, 			{
				"patchline" : 				{
					"destination" : [ "obj-242", 0 ],
					"source" : [ "obj-261", 0 ]
				}

			}
, 			{
				"patchline" : 				{
					"destination" : [ "obj-339", 0 ],
					"source" : [ "obj-263", 0 ]
				}

			}
, 			{
				"patchline" : 				{
					"destination" : [ "obj-340", 0 ],
					"source" : [ "obj-263", 1 ]
				}

			}
, 			{
				"patchline" : 				{
					"destination" : [ "obj-330", 1 ],
					"midpoints" : [ 686.139076709747314, 291.0, 633.472410043080686, 291.0 ],
					"source" : [ "obj-27", 0 ]
				}

			}
, 			{
				"patchline" : 				{
					"destination" : [ "obj-330", 2 ],
					"midpoints" : [ 742.139076709747314, 291.0, 641.805743376414057, 291.0 ],
					"source" : [ "obj-28", 0 ]
				}

			}
, 			{
				"patchline" : 				{
					"destination" : [ "obj-167", 0 ],
					"source" : [ "obj-307", 0 ]
				}

			}
, 			{
				"patchline" : 				{
					"destination" : [ "obj-109", 0 ],
					"source" : [ "obj-330", 0 ]
				}

			}
, 			{
				"patchline" : 				{
					"destination" : [ "obj-25", 0 ],
					"source" : [ "obj-336", 0 ]
				}

			}
, 			{
				"patchline" : 				{
					"destination" : [ "obj-78", 0 ],
					"source" : [ "obj-341", 0 ]
				}

			}
, 			{
				"patchline" : 				{
					"destination" : [ "obj-307", 0 ],
					"source" : [ "obj-4", 0 ]
				}

			}
, 			{
				"patchline" : 				{
					"destination" : [ "obj-81", 0 ],
					"midpoints" : [ 754.125766515731812, 983.769234895706177, 625.139076709747314, 983.769234895706177 ],
					"source" : [ "obj-41", 0 ]
				}

			}
, 			{
				"patchline" : 				{
					"destination" : [ "obj-64", 0 ],
					"midpoints" : [ 1054.871799945831299, 802.895563006401062, 1054.871799945831299, 802.895563006401062 ],
					"source" : [ "obj-61", 0 ]
				}

			}
, 			{
				"patchline" : 				{
					"destination" : [ "obj-192", 0 ],
					"midpoints" : [ 1054.871799945831299, 853.895563006401062, 1054.871799945831299, 853.895563006401062 ],
					"source" : [ "obj-64", 0 ]
				}

			}
, 			{
				"patchline" : 				{
					"destination" : [ "obj-68", 0 ],
					"midpoints" : [ 1054.871799945831299, 745.895563006401062, 1054.871799945831299, 745.895563006401062 ],
					"source" : [ "obj-66", 0 ]
				}

			}
, 			{
				"patchline" : 				{
					"destination" : [ "obj-61", 0 ],
					"midpoints" : [ 1054.871799945831299, 772.895563006401062, 1054.871799945831299, 772.895563006401062 ],
					"source" : [ "obj-68", 0 ]
				}

			}
, 			{
				"patchline" : 				{
					"destination" : [ "obj-81", 0 ],
					"source" : [ "obj-78", 0 ]
				}

			}
, 			{
				"patchline" : 				{
					"destination" : [ "obj-109", 0 ],
					"midpoints" : [ 874.370663602210925, 381.0, 625.139076709747314, 381.0 ],
					"source" : [ "obj-8", 0 ]
				}

			}
, 			{
				"patchline" : 				{
					"destination" : [ "obj-78", 0 ],
					"source" : [ "obj-80", 0 ]
				}

			}
, 			{
				"patchline" : 				{
					"destination" : [ "obj-82", 0 ],
					"source" : [ "obj-81", 0 ]
				}

			}
, 			{
				"patchline" : 				{
					"destination" : [ "obj-86", 1 ],
					"order" : 0,
					"source" : [ "obj-82", 0 ]
				}

			}
, 			{
				"patchline" : 				{
					"destination" : [ "obj-86", 0 ],
					"order" : 1,
					"source" : [ "obj-82", 0 ]
				}

			}
, 			{
				"patchline" : 				{
					"destination" : [ "obj-261", 0 ],
					"source" : [ "obj-86", 1 ]
				}

			}
, 			{
				"patchline" : 				{
					"destination" : [ "obj-90", 0 ],
					"source" : [ "obj-86", 0 ]
				}

			}
, 			{
				"patchline" : 				{
					"destination" : [ "obj-81", 0 ],
					"midpoints" : [ 742.356535792350769, 1107.0, 625.139076709747314, 1107.0 ],
					"source" : [ "obj-89", 0 ]
				}

			}
, 			{
				"patchline" : 				{
					"destination" : [ "obj-260", 0 ],
					"source" : [ "obj-90", 0 ]
				}

			}
 ],
		"styles" : [ 			{
				"name" : "blacko",
				"default" : 				{
					"accentcolor" : [ 0.184313725490196, 0.184313725490196, 0.184313725490196, 1.0 ],
					"bgcolor" : [ 0.184313725490196, 0.184313725490196, 0.184313725490196, 1.0 ],
					"editing_bgcolor" : [ 0.094117647058824, 0.058823529411765, 0.050980392156863, 1.0 ],
					"elementcolor" : [ 0.34902, 0.34902, 0.34902, 1.0 ],
					"fontname" : [ "Ableton Sans" ],
					"locked_bgcolor" : [ 0.07843137254902, 0.047058823529412, 0.043137254901961, 1.0 ],
					"stripecolor" : [ 0.243137, 0.243137, 0.243137, 1.0 ],
					"textcolor" : [ 1.0, 1.0, 1.0, 1.0 ],
					"textjustification" : [ 0 ]
				}
,
				"parentstyle" : "",
				"multi" : 0
			}
 ]
	}

}
