{
	"patcher" : 	{
		"fileversion" : 1,
		"appversion" : 		{
			"major" : 8,
			"minor" : 5,
			"revision" : 6,
			"architecture" : "x64",
			"modernui" : 1
		}
,
		"classnamespace" : "box",
		"rect" : [ -1272.0, 116.0, 1532.0, 991.0 ],
		"bglocked" : 0,
		"openinpresentation" : 0,
		"default_fontsize" : 12.0,
		"default_fontface" : 0,
		"default_fontname" : "Ableton Sans",
		"gridonopen" : 1,
		"gridsize" : [ 15.0, 15.0 ],
		"gridsnaponopen" : 1,
		"objectsnaponopen" : 1,
		"statusbarvisible" : 2,
		"toolbarvisible" : 1,
		"lefttoolbarpinned" : 0,
		"toptoolbarpinned" : 0,
		"righttoolbarpinned" : 0,
		"bottomtoolbarpinned" : 0,
		"toolbars_unpinned_last_save" : 15,
		"tallnewobj" : 0,
		"boxanimatetime" : 200,
		"enablehscroll" : 1,
		"enablevscroll" : 1,
		"devicewidth" : 0.0,
		"description" : "",
		"digest" : "",
		"tags" : "",
		"style" : "blacko",
		"subpatcher_template" : "myTemplate!",
		"assistshowspatchername" : 0,
		"boxes" : [ 			{
				"box" : 				{
					"id" : "obj-7",
					"maxclass" : "newobj",
					"numinlets" : 2,
					"numoutlets" : 1,
					"outlettype" : [ "signal" ],
					"patching_rect" : [ 607.236836314201355, 465.789469242095947, 31.0, 23.0 ],
					"text" : "*~ 1"
				}

			}
, 			{
				"box" : 				{
					"id" : "obj-3",
					"maxclass" : "newobj",
					"numinlets" : 2,
					"numoutlets" : 1,
					"outlettype" : [ "signal" ],
					"patching_rect" : [ 667.0, 427.631574869155884, 33.0, 23.0 ],
					"text" : ">~ 0"
				}

			}
, 			{
				"box" : 				{
					"id" : "obj-28",
					"maxclass" : "newobj",
					"numinlets" : 1,
					"numoutlets" : 0,
					"patching_rect" : [ 583.034187912940979, 823.076931416988373, 55.0, 23.0 ],
					"text" : "mc.dac~"
				}

			}
, 			{
				"box" : 				{
					"id" : "obj-46",
					"maxclass" : "button",
					"numinlets" : 1,
					"numoutlets" : 1,
					"outlettype" : [ "bang" ],
					"parameter_enable" : 0,
					"patching_rect" : [ 632.0, 501.372023165225983, 24.0, 24.0 ]
				}

			}
, 			{
				"box" : 				{
					"addpoints_with_curve" : [ 0.0, 0.0, 0, 0.0, 0.0, 1.0, 0, -0.5, 677.759668294419612, 0.0, 0, 0.795, 1000.0, 0.0, 0, 0.0 ],
					"id" : "obj-24",
					"maxclass" : "function",
					"mode" : 1,
					"numinlets" : 1,
					"numoutlets" : 4,
					"outlettype" : [ "float", "", "", "bang" ],
					"parameter_enable" : 0,
					"patching_rect" : [ 632.0, 527.372023165225983, 106.0, 55.0 ]
				}

			}
, 			{
				"box" : 				{
					"id" : "obj-27",
					"maxclass" : "newobj",
					"numinlets" : 1,
					"numoutlets" : 1,
					"outlettype" : [ "signal" ],
					"patching_rect" : [ 607.0, 584.372023165225983, 131.0, 23.0 ],
					"text" : "shape~ @curvemode 1"
				}

			}
, 			{
				"box" : 				{
					"id" : "obj-25",
					"maxclass" : "newobj",
					"numinlets" : 1,
					"numoutlets" : 6,
					"outlettype" : [ "signal", "signal", "signal", "signal", "signal", "" ],
					"patching_rect" : [ 607.0, 189.65789520740509, 319.444445908069611, 23.0 ],
					"saved_object_attributes" : 					{
						"parameter_enable" : 0,
						"parameter_mappable" : 0
					}
,
					"text" : "rtt.loop~ @subdiv 12 @steps 5"
				}

			}
, 			{
				"box" : 				{
					"id" : "obj-8",
					"maxclass" : "toggle",
					"numinlets" : 1,
					"numoutlets" : 1,
					"outlettype" : [ "int" ],
					"parameter_enable" : 0,
					"patching_rect" : [ 607.0, 109.0, 24.0, 24.0 ]
				}

			}
, 			{
				"box" : 				{
					"id" : "obj-2",
					"maxclass" : "newobj",
					"numinlets" : 4,
					"numoutlets" : 2,
					"outlettype" : [ "signal", "signal" ],
					"patching_rect" : [ 607.0, 143.0, 123.0, 23.0 ],
					"saved_object_attributes" : 					{
						"parameter_enable" : 0,
						"parameter_mappable" : 0
					}
,
					"text" : "rtt.clock~ @bpm 150"
				}

			}
, 			{
				"box" : 				{
					"id" : "obj-22",
					"maxclass" : "comment",
					"numinlets" : 1,
					"numoutlets" : 0,
					"patching_rect" : [ 1075.748473627227213, 660.965813100337982, 58.0, 21.0 ],
					"text" : "note"
				}

			}
, 			{
				"box" : 				{
					"id" : "obj-21",
					"maxclass" : "comment",
					"numinlets" : 1,
					"numoutlets" : 0,
					"patching_rect" : [ 1008.034187912940979, 660.965813100337982, 58.0, 21.0 ],
					"text" : "Rpos"
				}

			}
, 			{
				"box" : 				{
					"id" : "obj-20",
					"maxclass" : "comment",
					"numinlets" : 1,
					"numoutlets" : 0,
					"patching_rect" : [ 938.034187912940979, 660.965813100337982, 58.0, 21.0 ],
					"text" : "Lpos"
				}

			}
, 			{
				"box" : 				{
					"id" : "obj-19",
					"maxclass" : "comment",
					"numinlets" : 1,
					"numoutlets" : 0,
					"patching_rect" : [ 871.034187912940979, 660.965813100337982, 58.0, 21.0 ],
					"text" : "closs"
				}

			}
, 			{
				"box" : 				{
					"id" : "obj-18",
					"maxclass" : "comment",
					"numinlets" : 1,
					"numoutlets" : 0,
					"patching_rect" : [ 802.391330770084096, 660.965813100337982, 58.0, 21.0 ],
					"text" : "floss"
				}

			}
, 			{
				"box" : 				{
					"id" : "obj-17",
					"maxclass" : "comment",
					"numinlets" : 1,
					"numoutlets" : 0,
					"patching_rect" : [ 733.034187912940979, 660.965813100337982, 58.0, 21.0 ],
					"text" : "pos"
				}

			}
, 			{
				"box" : 				{
					"id" : "obj-16",
					"maxclass" : "comment",
					"numinlets" : 1,
					"numoutlets" : 0,
					"patching_rect" : [ 661.034187912940979, 660.965813100337982, 58.0, 21.0 ],
					"text" : "weight"
				}

			}
, 			{
				"box" : 				{
					"id" : "obj-15",
					"maxclass" : "comment",
					"numinlets" : 1,
					"numoutlets" : 0,
					"patching_rect" : [ 595.034187912940979, 660.965813100337982, 58.0, 21.0 ],
					"text" : "press"
				}

			}
, 			{
				"box" : 				{
					"id" : "obj-6",
					"lastchannelcount" : 2,
					"maxclass" : "mc.live.gain~",
					"numinlets" : 1,
					"numoutlets" : 4,
					"orientation" : 1,
					"outlettype" : [ "multichannelsignal", "", "float", "list" ],
					"parameter_enable" : 1,
					"patching_rect" : [ 583.034187912940979, 734.965813100337982, 136.0, 47.0 ],
					"saved_attribute_attributes" : 					{
						"valueof" : 						{
							"parameter_longname" : "mc.live.gain~",
							"parameter_mmax" : 6.0,
							"parameter_mmin" : -70.0,
							"parameter_shortname" : "mc.live.gain~",
							"parameter_type" : 0,
							"parameter_unitstyle" : 4
						}

					}
,
					"varname" : "mc.live.gain~"
				}

			}
, 			{
				"box" : 				{
					"id" : "obj-5",
					"maxclass" : "newobj",
					"numinlets" : 2,
					"numoutlets" : 1,
					"outlettype" : [ "multichannelsignal" ],
					"patching_rect" : [ 583.034187912940979, 709.965813100337982, 70.0, 23.0 ],
					"text" : "mc.stereo~"
				}

			}
, 			{
				"box" : 				{
					"id" : "obj-4",
					"maxclass" : "button",
					"numinlets" : 1,
					"numoutlets" : 1,
					"outlettype" : [ "bang" ],
					"parameter_enable" : 0,
					"patching_rect" : [ 557.034187912940979, 683.965813100337982, 24.0, 24.0 ]
				}

			}
, 			{
				"box" : 				{
					"id" : "obj-1",
					"maxclass" : "newobj",
					"numinlets" : 8,
					"numoutlets" : 1,
					"outlettype" : [ "multichannelsignal" ],
					"patching_rect" : [ 583.034187912940979, 683.965813100337982, 496.925914585590363, 23.0 ],
					"text" : "bs.reed-tube-1voice-mc-1"
				}

			}
 ],
		"lines" : [ 			{
				"patchline" : 				{
					"destination" : [ "obj-5", 0 ],
					"source" : [ "obj-1", 0 ]
				}

			}
, 			{
				"patchline" : 				{
					"destination" : [ "obj-25", 0 ],
					"source" : [ "obj-2", 0 ]
				}

			}
, 			{
				"patchline" : 				{
					"color" : [ 0.701960784313725, 0.701960784313725, 0.701960784313725, 0.070588235294118 ],
					"destination" : [ "obj-27", 0 ],
					"midpoints" : [ 670.5, 583.372023165225983, 616.5, 583.372023165225983 ],
					"source" : [ "obj-24", 1 ]
				}

			}
, 			{
				"patchline" : 				{
					"destination" : [ "obj-7", 0 ],
					"source" : [ "obj-25", 0 ]
				}

			}
, 			{
				"patchline" : 				{
					"destination" : [ "obj-1", 0 ],
					"source" : [ "obj-27", 0 ]
				}

			}
, 			{
				"patchline" : 				{
					"destination" : [ "obj-7", 1 ],
					"source" : [ "obj-3", 0 ]
				}

			}
, 			{
				"patchline" : 				{
					"destination" : [ "obj-1", 0 ],
					"source" : [ "obj-4", 0 ]
				}

			}
, 			{
				"patchline" : 				{
					"destination" : [ "obj-24", 0 ],
					"source" : [ "obj-46", 0 ]
				}

			}
, 			{
				"patchline" : 				{
					"destination" : [ "obj-6", 0 ],
					"source" : [ "obj-5", 0 ]
				}

			}
, 			{
				"patchline" : 				{
					"destination" : [ "obj-28", 0 ],
					"source" : [ "obj-6", 0 ]
				}

			}
, 			{
				"patchline" : 				{
					"destination" : [ "obj-27", 0 ],
					"source" : [ "obj-7", 0 ]
				}

			}
, 			{
				"patchline" : 				{
					"destination" : [ "obj-2", 0 ],
					"source" : [ "obj-8", 0 ]
				}

			}
 ],
		"parameters" : 		{
			"obj-6" : [ "mc.live.gain~", "mc.live.gain~", 0 ],
			"parameterbanks" : 			{
				"0" : 				{
					"index" : 0,
					"name" : "",
					"parameters" : [ "-", "-", "-", "-", "-", "-", "-", "-" ]
				}

			}
,
			"inherited_shortname" : 1
		}
,
		"dependency_cache" : [ 			{
				"name" : "bs.reed-tube-1voice-mc-1.maxpat",
				"bootpath" : "~/OneDrive/Documents/Max 8/Projects/modalys",
				"patcherrelativepath" : "../modalys",
				"type" : "JSON",
				"implicit" : 1
			}
, 			{
				"name" : "dc-block.gendsp",
				"bootpath" : "~/OneDrive/Documents/Max 8/Projects/gens",
				"patcherrelativepath" : "../gens",
				"type" : "gDSP",
				"implicit" : 1
			}
, 			{
				"name" : "mlys.closed-open-tube.mxe64",
				"type" : "mx64"
			}
, 			{
				"name" : "mlys.mono-two-mass.mxe64",
				"type" : "mx64"
			}
, 			{
				"name" : "mlys.point-input.mxe64",
				"type" : "mx64"
			}
, 			{
				"name" : "mlys.point-output.mxe64",
				"type" : "mx64"
			}
, 			{
				"name" : "mlys.position.mxe64",
				"type" : "mx64"
			}
, 			{
				"name" : "mlys.reed.mxe64",
				"type" : "mx64"
			}
, 			{
				"name" : "mlys.script.mxe64",
				"type" : "mx64"
			}
, 			{
				"name" : "mlys.signal.mxe64",
				"type" : "mx64"
			}
, 			{
				"name" : "modalys~.mxe64",
				"type" : "mx64"
			}
, 			{
				"name" : "rtt.clock~.mxe64",
				"type" : "mx64"
			}
, 			{
				"name" : "rtt.loop~.mxe64",
				"type" : "mx64"
			}
 ],
		"autosave" : 0,
		"styles" : [ 			{
				"name" : "blacko",
				"default" : 				{
					"accentcolor" : [ 0.184313725490196, 0.184313725490196, 0.184313725490196, 1.0 ],
					"bgcolor" : [ 0.184313725490196, 0.184313725490196, 0.184313725490196, 1.0 ],
					"editing_bgcolor" : [ 0.094117647058824, 0.058823529411765, 0.050980392156863, 1.0 ],
					"elementcolor" : [ 0.34902, 0.34902, 0.34902, 1.0 ],
					"fontname" : [ "Ableton Sans" ],
					"locked_bgcolor" : [ 0.07843137254902, 0.047058823529412, 0.043137254901961, 1.0 ],
					"stripecolor" : [ 0.243137, 0.243137, 0.243137, 1.0 ],
					"textcolor" : [ 1.0, 1.0, 1.0, 1.0 ],
					"textjustification" : [ 0 ]
				}
,
				"parentstyle" : "",
				"multi" : 0
			}
 ]
	}

}
